<?xml version="1.0"?>
<svg width="300" height="300" xmlns="http://www.w3.org/2000/svg" xmlns:svg="http://www.w3.org/2000/svg" version="1.2">
 <defs>
  <clipPath id="clip17">
   <path d="m0,0l125.27,0l0,125.27l-125.27,0l0,-125.27z" id="svg_1"/>
  </clipPath>
 </defs>
 <g class="layer">
  <title>Layer 1</title>
  <g fill="#0674fe" id="svg_2" transform="matrix(2.3471 0 0 2.3471 2.9657 3.8439)">
   <g fill="#0674fe" id="svg_3">
    <g clip-path="url(#clip17)" fill="#0674fe" id="svg_4">
     <path d="m77.12,43.28l4.03,-13.56l4.12,13.56l-8.15,0zm20.09,11.84l-10.58,-31.99c-0.23,-0.71 -0.5,-1.17 -0.8,-1.38c-0.3,-0.22 -0.79,-0.33 -1.46,-0.33l-5.84,0c-0.67,0 -1.17,0.12 -1.49,0.35c-0.31,0.23 -0.58,0.69 -0.78,1.36l-10.67,31.99c-0.13,0.17 -0.2,0.5 -0.2,1c0,0.78 0.47,1.16 1.41,1.16l4.38,0c0.41,0 0.73,-0.02 0.98,-0.05c0.25,-0.03 0.45,-0.12 0.6,-0.25c0.16,-0.13 0.29,-0.34 0.41,-0.6c0.11,-0.28 0.24,-0.63 0.38,-1.06l1.66,-5.59l12.03,0l1.71,5.49c0.13,0.47 0.27,0.84 0.4,1.11c0.13,0.26 0.29,0.47 0.45,0.63c0.17,0.14 0.37,0.24 0.61,0.27c0.23,0.03 0.53,0.05 0.91,0.05l4.68,0c0.93,0 1.41,-0.38 1.41,-1.16c0,-0.23 -0.01,-0.39 -0.03,-0.47c-0.02,-0.09 -0.08,-0.26 -0.17,-0.53m-5.2,12.88l-3.37,0c-0.87,0 -1.45,0.12 -1.73,0.37c-0.29,0.26 -0.43,0.77 -0.43,1.54l0,18.99l-9.97,-19.04c-0.4,-0.81 -0.8,-1.32 -1.18,-1.54s-1.07,-0.33 -2.04,-0.33l-3.12,0c-0.87,0 -1.46,0.13 -1.74,0.38c-0.28,0.26 -0.43,0.77 -0.43,1.54l0,32.03c0,0.78 0.14,1.29 0.41,1.54c0.26,0.25 0.83,0.38 1.71,0.38l3.42,0c0.87,0 1.45,-0.13 1.74,-0.38c0.28,-0.25 0.42,-0.76 0.42,-1.54l0,-19.04l9.97,19.09c0.4,0.81 0.8,1.33 1.18,1.54c0.39,0.22 1.07,0.33 2.04,0.33l3.12,0c0.88,0 1.45,-0.13 1.74,-0.38c0.28,-0.25 0.43,-0.76 0.43,-1.54l0,-32.03c0,-0.77 -0.15,-1.28 -0.43,-1.54c-0.29,-0.25 -0.86,-0.37 -1.74,-0.37m16.72,-3.04l8.7,8.69l0,43.77l-109.57,0l0,-43.77l8.67,-8.69c1.29,-1.28 1.29,-3.36 0,-4.64l-8.67,-8.69l0,-43.77l109.57,0l0,43.77l-8.7,8.68c-1.28,1.29 -1.28,3.37 0,4.66m16.55,-64.97l-125.27,0l0,55.4l7.23,7.24l-7.23,7.24l0,55.39l125.27,0l0,-55.39l-7.24,-7.24l7.24,-7.24l0,-55.4zm-69.58,96.4l-14.15,0l14.9,-20.95c0.23,-0.33 0.39,-0.6 0.46,-0.81c0.06,-0.19 0.09,-0.43 0.09,-0.7l0,-4.03c0,-0.77 -0.14,-1.28 -0.42,-1.53c-0.29,-0.25 -0.87,-0.38 -1.75,-0.38l-21.51,0c-0.78,0 -1.28,0.14 -1.52,0.42c-0.23,0.29 -0.35,0.89 -0.35,1.8l0,3.01c0,0.91 0.12,1.51 0.35,1.79c0.24,0.29 0.74,0.43 1.52,0.43l13.28,0l-14.7,20.95c-0.37,0.48 -0.56,0.95 -0.56,1.41l0,4.14c0,0.77 0.15,1.28 0.44,1.53c0.28,0.25 0.86,0.38 1.74,0.38l22.18,0c0.78,0 1.28,-0.14 1.52,-0.43c0.23,-0.28 0.35,-0.88 0.35,-1.79l0,-3.02c0,-0.9 -0.12,-1.5 -0.35,-1.78c-0.24,-0.29 -0.74,-0.44 -1.52,-0.44m-6.59,-53.42c0,1.38 -0.09,2.53 -0.27,3.45c-0.19,0.92 -0.49,1.67 -0.91,2.24c-0.42,0.57 -0.97,0.97 -1.66,1.21c-0.69,0.23 -1.54,0.35 -2.54,0.35l-4.13,0l0,-21.76l4.13,0c1.91,0 3.29,0.56 4.12,1.69c0.84,1.12 1.26,2.98 1.26,5.57l0,7.25zm7.2,-14.56c-1.17,-2.39 -2.78,-4.15 -4.8,-5.29c-2.04,-1.14 -4.59,-1.71 -7.68,-1.71l-10.32,0c-0.87,0 -1.45,0.13 -1.74,0.38c-0.28,0.25 -0.43,0.76 -0.43,1.53l0,32.04c0,0.77 0.15,1.28 0.43,1.54c0.29,0.25 0.87,0.37 1.74,0.37l11.58,0c5.47,0 9.21,-2.33 11.22,-7c0.47,-1.07 0.8,-2.16 0.98,-3.25c0.19,-1.09 0.28,-2.48 0.28,-4.15l0,-6.8c0,-1.92 -0.09,-3.43 -0.28,-4.54c-0.18,-1.11 -0.51,-2.15 -0.98,-3.12" fill="#0674fe" id="svg_5" stroke="#0674fe"/>
    </g>
   </g>
  </g>
 </g>
</svg>