<svg xmlns="http://www.w3.org/2000/svg"
viewBox = "0 0 800 588"
width="512"
height="512">
<g fill="#1C79BD" fill-opacity="1.00" stroke="None">
<path d="
M 388.00 18.00 
C 327.69 18.00 269.89 49.64 225.00 88.00
C 218.75 94.25 212.20 100.80 206.00 107.00
C 199.63 114.46 192.18 121.91 187.00 130.00
C 186.77 130.35 187.00 131.00 187.00 131.00
C 189.42 134.89 192.40 139.48 194.92 143.08 C 197.45 146.67 196.22 156.40 200.00 158.00
C 196.92 156.24 203.62 149.67 205.25 147.25 C 206.88 144.83 210.17 139.45 212.75 136.75 C 215.34 134.06 218.90 129.00 221.00 126.00
C 225.87 119.04 233.63 112.45 240.00 107.00
C 282.24 70.91 335.63 43.13 392.00 42.00
C 394.48 41.70 397.86 41.00 401.00 41.00
C 435.19 41.00 472.42 47.51 502.69 59.31 C 532.97 71.10 551.20 86.57 577.00 105.00
C 583.91 109.94 592.10 118.15 597.00 125.00
C 612.56 146.79 630.70 167.35 639.00 193.00
C 580.46 200.13 519.04 195.83 459.00 197.00
C 456.92 215.63 453.97 234.07 453.00 253.00
C 452.65 262.30 446.72 259.96 439.00 260.00 C 431.28 260.04 424.45 260.03 417.00 260.00 C 409.55 259.97 402.25 260.12 395.00 260.00 C 387.75 259.88 381.08 260.32 374.00 260.00 C 366.92 259.68 358.87 260.68 352.00 260.00 C 345.13 259.32 336.35 261.51 330.00 260.00 C 323.65 258.49 313.17 263.34 308.00 260.00
C 309.45 267.27 307.75 276.64 305.00 283.00
C 313.40 279.33 325.72 284.66 335.00 283.00 C 344.28 281.34 355.32 283.75 365.00 283.00 C 374.68 282.25 385.14 283.34 395.00 283.00 C 404.86 282.66 415.06 283.15 425.00 283.00 C 434.94 282.85 445.01 283.07 455.00 283.00 C 464.99 282.93 474.97 283.03 485.00 283.00 C 495.03 282.97 504.91 283.01 515.00 283.00 C 525.09 282.99 535.90 283.00 546.00 283.00 C 556.10 283.00 565.96 283.00 576.00 283.00 C 586.04 283.00 595.98 282.99 606.00 283.00 C 616.02 283.01 625.99 282.98 636.00 283.00 C 646.01 283.02 655.99 282.96 666.00 283.00 C 676.01 283.04 685.98 282.91 696.00 283.00 C 706.02 283.09 715.95 282.81 726.00 283.00 C 736.05 283.19 745.90 282.57 756.00 283.00 C 766.10 283.43 776.89 282.09 787.00 283.00
C 786.86 226.33 787.10 169.67 787.00 113.00
C 784.67 113.00 782.33 113.00 780.00 113.00
C 757.39 156.46 708.76 177.98 664.00 188.00
C 652.78 157.83 634.11 131.70 613.00 107.00
C 606.75 100.75 600.20 94.20 594.00 88.00
C 548.43 49.06 491.88 19.22 431.00 18.00
C 428.59 17.95 425.70 17.16 424.00 17.00
C 414.68 16.81 405.33 17.00 396.00 17.00
C 393.96 17.20 390.77 18.00 388.00 18.00 Z"/>
</g>
<g fill="#1C79BD" fill-opacity="0.91" stroke="None">
<path d="
M 431.00 18.00 
C 429.30 17.84 426.41 17.05 424.00 17.00
C 425.70 17.16 428.59 17.95 431.00 18.00 Z"/>
</g>
<g fill="#1C79BD" fill-opacity="0.85" stroke="None">
<path d="
M 392.00 42.00 
C 395.06 41.94 398.66 41.23 401.00 41.00
C 397.86 41.00 394.48 41.70 392.00 42.00 Z"/>
</g>
<g fill="#1C79BD" fill-opacity="0.00" stroke="None">
<path d="
M 392.00 42.00 
C 335.63 43.13 282.24 70.91 240.00 107.00
C 233.97 113.03 226.33 119.51 221.00 126.00
C 218.90 129.00 215.34 134.06 212.75 136.75 C 210.17 139.45 206.88 144.83 205.25 147.25 C 203.62 149.67 196.92 156.24 200.00 158.00
C 204.95 160.09 208.76 153.16 213.23 151.23 C 217.70 149.30 224.59 147.18 230.00 147.00
C 232.47 146.65 234.58 146.65 237.00 147.00
C 244.70 147.26 251.81 149.40 258.00 154.00
C 262.00 156.97 266.07 161.06 269.00 165.00
C 278.92 178.34 278.84 198.29 270.00 212.00
C 269.10 213.39 265.29 216.91 265.00 218.00
C 264.63 220.06 265.02 221.59 266.00 223.00
C 267.24 224.28 272.71 224.77 274.00 225.00
C 279.15 225.47 283.53 227.43 288.00 230.00
C 292.56 232.63 296.84 236.75 300.00 241.00
C 303.63 245.88 305.61 251.23 307.00 257.00
C 311.56 263.13 325.95 257.56 334.00 259.00 C 342.05 260.44 353.94 258.37 363.00 259.00 C 372.06 259.63 383.53 258.70 393.00 259.00 C 402.47 259.30 412.32 258.85 422.00 259.00 C 431.68 259.15 442.24 258.88 452.00 259.00
C 452.47 257.12 450.94 254.07 453.00 253.00
C 453.97 234.07 456.92 215.63 459.00 197.00
C 519.04 195.83 580.46 200.13 639.00 193.00
C 630.70 167.35 612.56 146.79 597.00 125.00
C 591.53 118.47 583.48 110.43 577.00 105.00
C 551.20 86.57 532.97 71.10 502.69 59.31 C 472.42 47.51 435.19 41.00 401.00 41.00
C 398.66 41.23 395.06 41.94 392.00 42.00 Z"/>
</g>
<g fill="#1C79BD" fill-opacity="1.00" stroke="None">
<path d="
M 135.00 124.00 
C 130.89 127.18 125.52 131.96 122.00 136.00
C 117.23 142.41 118.06 149.45 115.00 156.00
C 111.92 162.59 107.02 156.46 104.00 154.00
C 92.03 146.28 77.38 144.75 64.00 150.00
C 61.79 151.18 59.55 153.00 57.00 154.00
C 57.00 154.00 56.40 153.80 56.00 154.00
C 53.01 158.28 48.30 161.22 45.00 165.00
C 40.90 170.52 38.37 177.15 38.00 184.00
C 37.81 187.59 37.81 191.41 38.00 195.00
C 38.46 203.44 41.78 210.45 47.00 217.00
C 49.13 219.67 52.15 222.75 47.00 225.00
C 42.60 226.92 35.48 225.40 31.22 228.22 C 26.97 231.05 24.05 231.80 20.00 235.00
C 18.14 236.72 15.68 239.19 14.00 241.00
C 2.94 255.01 1.04 277.26 12.00 292.00
C 15.06 295.51 19.55 299.99 23.00 303.00
C 28.52 307.10 32.45 309.48 40.00 310.00 C 47.54 310.53 50.10 314.35 45.30 320.31 C 40.51 326.26 39.46 330.22 39.00 337.00
C 38.65 342.17 38.65 347.83 39.00 353.00
C 39.21 356.13 39.95 358.16 41.00 361.00
C 42.09 363.16 43.75 365.68 45.00 368.00
C 50.53 378.26 62.11 386.35 74.00 387.00
C 78.55 387.25 83.45 387.31 88.00 387.00
C 96.73 386.41 100.58 380.69 108.00 378.00
C 110.44 377.12 112.57 376.73 114.00 380.00
C 117.11 387.12 116.17 393.97 121.00 401.00
C 124.06 404.51 128.54 408.99 132.00 412.00
C 137.76 415.95 143.96 418.62 151.00 419.00
C 154.64 419.20 158.35 419.00 162.00 419.00
C 162.50 419.00 163.59 419.19 164.00 419.00
C 173.88 414.27 183.07 411.10 191.00 402.00
C 194.65 396.68 196.45 392.15 198.00 386.00
C 198.50 382.65 197.59 380.49 200.00 378.00
C 205.75 372.07 219.02 388.65 229.00 387.00 C 238.98 385.35 253.42 386.18 261.25 377.25 C 269.09 368.33 275.32 362.53 276.00 350.00
C 276.19 346.41 276.19 342.59 276.00 339.00
C 275.63 332.11 273.12 325.53 269.00 320.00
C 267.35 318.11 263.88 317.02 264.00 314.00
C 264.66 312.64 265.27 311.34 266.00 310.00
C 271.35 310.24 276.20 308.77 281.00 307.00
C 283.16 305.91 285.68 304.25 288.00 303.00
C 293.91 299.81 297.81 295.92 301.00 290.00
C 302.24 287.70 303.99 285.35 305.00 283.00
C 307.75 276.64 309.45 267.27 308.00 260.00
C 307.81 259.04 307.25 258.03 307.00 257.00
C 305.61 251.23 303.63 245.88 300.00 241.00
C 296.78 237.31 291.75 232.73 288.00 230.00
C 283.53 227.43 279.15 225.47 274.00 225.00
C 270.71 224.70 268.04 225.93 266.00 223.00
C 265.02 221.59 264.63 220.06 265.00 218.00
C 265.45 215.48 268.61 213.71 270.00 212.00
C 278.84 198.29 278.92 178.34 269.00 165.00
C 265.94 161.49 261.45 157.01 258.00 154.00
C 251.81 149.40 244.70 147.26 237.00 147.00
C 234.69 146.92 232.31 146.92 230.00 147.00
C 224.59 147.18 217.70 149.30 213.23 151.23 C 208.76 153.16 204.95 160.09 200.00 158.00
C 196.22 156.40 197.45 146.67 194.92 143.08 C 192.40 139.48 189.42 134.89 187.00 131.00
C 184.42 129.14 182.31 126.88 180.00 125.00
C 175.25 121.93 170.75 119.39 165.00 119.00
C 159.83 118.65 154.17 118.65 149.00 119.00
C 143.64 119.36 139.47 121.23 135.00 124.00
M 164.00 220.00 
C 171.54 220.81 179.79 224.57 186.00 229.00
C 189.00 231.14 191.90 234.06 194.00 237.00
C 195.08 238.51 196.07 240.39 197.00 242.00
C 198.74 244.44 200.09 245.89 201.00 249.00
C 205.91 265.87 203.49 281.44 194.00 296.00
C 191.40 299.99 187.05 303.84 183.00 306.00
C 177.11 309.15 170.60 311.46 164.00 313.00
C 159.45 314.06 154.48 314.04 150.00 313.00
C 143.34 311.45 136.98 309.23 131.00 306.00
C 126.66 303.66 121.65 299.29 119.00 295.00
C 118.36 293.96 117.68 292.21 117.00 291.00
C 115.26 288.56 113.91 287.11 113.00 284.00
C 111.87 280.11 110.95 275.96 110.00 272.00
C 109.09 268.21 109.10 264.73 110.00 261.00
C 112.07 252.39 114.76 244.33 120.00 237.00
C 122.14 234.00 125.06 231.10 128.00 229.00
C 134.22 224.55 141.68 221.70 149.00 220.00
C 151.05 219.52 153.31 218.83 156.00 219.00
C 156.50 219.03 157.50 219.03 158.00 219.00
C 160.41 218.85 162.29 219.64 164.00 220.00 Z"/>
</g>
<g fill="#1C79BD" fill-opacity="1.00" stroke="None">
<path d="
M 372.00 340.00 
C 369.41 342.59 366.54 345.46 364.00 348.00
C 343.71 370.47 332.12 399.40 333.00 430.00
C 427.67 430.00 522.33 430.00 617.00 430.00
C 575.30 495.31 501.59 535.86 426.00 541.00
C 417.30 542.56 406.61 541.83 398.00 541.00
C 383.62 541.00 366.39 537.84 353.02 534.98 C 339.66 532.11 327.13 527.62 315.08 522.92 C 303.02 518.23 292.48 512.40 281.75 506.25 C 271.01 500.11 261.18 492.64 251.75 485.25 C 242.32 477.85 233.69 469.55 226.25 460.75 C 218.81 451.95 208.74 442.84 203.77 433.23 C 198.80 423.62 184.31 411.75 191.00 402.00
C 183.07 411.10 173.88 414.27 164.00 419.00
C 170.37 419.76 173.16 435.01 178.08 439.92 C 183.00 444.83 187.24 454.77 192.70 460.30 C 198.15 465.83 202.51 473.85 208.75 479.25 C 214.99 484.65 220.00 491.19 226.25 496.75 C 232.50 502.31 239.09 507.08 245.75 512.25 C 252.42 517.41 259.31 522.07 266.75 526.25 C 274.20 530.43 280.85 535.48 288.93 539.07 C 297.00 542.67 305.16 546.20 313.78 549.22 C 322.40 552.25 330.68 555.92 339.99 558.01 C 349.30 560.10 359.24 562.37 369.00 564.00 C 378.76 565.63 390.70 566.00 401.00 566.00
C 406.67 566.00 412.33 566.00 418.00 566.00
C 483.81 566.00 543.75 538.09 593.00 496.00
C 599.92 489.08 607.13 481.87 614.00 475.00
C 619.67 468.36 625.51 459.30 631.25 453.25 C 636.99 447.20 640.09 434.69 647.00 431.00
C 650.59 429.08 656.61 430.00 661.00 430.00
C 692.56 430.00 721.20 419.34 745.00 399.00
C 748.92 395.08 753.13 390.87 757.00 387.00
C 775.82 364.66 787.10 336.75 786.00 307.00
C 756.39 307.07 725.48 306.91 696.00 307.00 C 666.52 307.09 636.10 306.82 607.00 307.00 C 577.90 307.18 545.25 306.62 517.00 307.00 C 488.75 307.38 456.43 304.87 431.00 310.00 C 405.58 315.13 391.09 323.68 372.00 340.00 Z"/>
</g>
</svg>