<svg xmlns="http://www.w3.org/2000/svg" xmlns:v="https://svgstorm.com"
viewBox = "0 0 640 392"
width="640"
height="392">
<g fill="None" fill-opacity="0.0" stroke="#000000" stroke-opacity="0.00" stroke-width="0.3"><path d="
M 0.00 139.00 
C 11.88 80.42 81.55 75.21 131.00 80.00
C 145.56 81.41 159.74 81.14 174.00 83.00
C 177.13 83.41 179.88 83.59 183.00 84.00
C 191.62 112.23 172.80 146.01 140.00 138.00
C 127.72 137.33 115.54 136.00 103.00 136.00
C 97.05 136.00 90.94 135.60 85.00 136.00
C 77.05 136.54 55.43 141.06 62.00 154.00
C 65.31 160.52 76.25 161.54 83.02 162.98 C 89.79 164.41 101.79 166.66 109.00 168.00
C 121.02 170.24 133.33 171.36 145.00 175.00
C 165.12 181.28 185.17 194.30 193.00 215.00
C 194.64 219.34 195.33 222.31 196.00 227.00
C 198.70 245.90 196.81 267.59 184.08 283.08 C 171.35 298.57 155.25 304.75 137.00 309.00
C 117.12 313.62 95.45 313.00 74.00 313.00
C 68.28 313.00 61.97 312.48 57.00 312.00
C 47.61 311.09 36.86 311.51 27.93 310.07 C 18.99 308.63 6.40 311.57 6.00 301.00 C 5.60 290.43 5.60 282.85 8.78 273.78 C 11.95 264.70 14.79 261.24 23.08 257.08 C 31.36 252.91 41.35 253.98 51.00 254.00 C 60.65 254.02 71.40 255.35 81.00 256.00
C 86.76 256.39 92.48 256.56 98.00 257.00
C 102.12 257.33 106.89 257.39 111.00 257.00
C 119.53 256.20 130.64 255.03 134.30 245.30 C 137.97 235.58 124.32 230.10 117.00 228.00
C 103.78 224.21 89.08 221.80 76.00 219.00
C 63.61 216.34 51.63 215.44 40.00 210.00
C 33.46 206.94 27.69 203.49 22.00 199.00
C 10.34 189.79 3.59 176.34 0.00 163.00
L 0.00 392.00
L 460.00 392.00
C 460.00 391.50 460.00 391.00 460.00 391.00
C 453.24 390.92 447.19 388.22 441.00 386.00
C 450.38 365.59 460.09 344.86 470.00 325.00
C 473.61 316.73 479.18 306.59 482.31 298.31 C 485.43 290.02 495.69 279.23 491.00 271.00
C 479.89 251.48 466.52 231.82 454.00 213.00
C 444.05 198.04 434.51 182.20 425.00 167.00
C 420.40 159.64 414.42 146.93 408.00 141.00
C 407.14 142.16 404.90 142.95 404.00 144.00
C 398.51 150.38 391.58 157.54 386.00 164.00
C 384.09 166.21 382.27 168.23 380.00 170.00
C 379.73 170.21 379.22 170.74 379.00 171.00
C 377.98 172.20 377.17 173.03 376.00 174.00
C 374.54 175.43 372.24 177.52 371.00 179.00
C 366.69 185.04 361.00 190.41 356.00 196.00
C 359.43 198.90 361.22 203.43 364.00 207.00
C 373.01 220.96 381.79 235.44 391.00 249.00
C 404.10 268.29 418.74 287.54 430.00 308.00
C 409.61 314.68 383.22 318.35 364.00 307.00
C 352.92 301.02 346.53 292.56 340.00 282.00
C 330.35 266.41 320.23 250.37 310.00 235.00
C 305.85 228.76 298.52 220.19 295.75 213.25 C 292.97 206.32 281.50 197.37 282.00 190.00
C 282.44 183.55 293.61 178.60 296.75 172.75 C 299.90 166.91 308.07 161.96 312.25 156.25 C 316.43 150.54 323.40 144.33 328.00 139.00
C 336.65 128.97 345.75 119.25 355.00 110.00
C 365.63 99.37 371.49 91.29 385.70 84.69 C 399.90 78.10 417.24 77.88 433.07 79.93 C 448.90 81.97 453.11 96.25 461.00 109.00
C 473.15 128.62 485.14 148.43 497.00 168.00
C 504.17 179.83 511.50 194.01 520.00 205.00
C 520.91 206.18 522.00 208.31 524.00 208.00
C 529.65 192.44 537.32 177.60 543.00 162.00
C 548.97 147.14 555.65 132.71 562.00 118.00
C 563.17 115.29 564.77 112.48 566.00 110.00
C 572.14 92.95 589.37 81.40 607.00 80.00
C 610.50 79.72 614.51 79.69 618.00 80.00
C 625.50 80.66 633.17 82.85 640.00 86.00
L 640.00 0.00
L 276.00 0.00
C 276.00 0.50 276.00 1.00 276.00 1.00
C 277.00 1.00 278.00 0.96 279.00 1.00
C 281.98 1.86 279.36 12.19 280.00 16.00 C 280.64 19.81 279.70 28.31 280.00 33.00 C 280.30 37.69 279.90 43.87 280.00 49.00 C 280.10 54.13 280.00 60.74 280.00 66.00
C 280.00 110.00 280.00 154.00 280.00 198.00
C 280.00 226.65 282.95 258.35 279.00 286.00
C 278.71 293.73 280.25 292.76 275.23 300.23 C 270.21 307.70 258.50 311.73 250.33 312.33 C 242.16 312.93 239.17 314.54 233.98 313.98 C 228.78 313.41 219.20 315.15 217.00 312.00
C 214.00 307.72 218.34 298.46 217.00 293.00 C 215.66 287.54 217.57 280.06 217.00 274.00 C 216.43 267.94 217.26 260.30 217.00 254.00 C 216.74 247.70 217.09 241.43 217.00 235.00 C 216.91 228.57 217.00 221.49 217.00 215.00
C 214.32 187.33 215.88 157.51 216.00 129.00 C 216.12 100.49 214.05 69.66 217.00 42.00
C 217.00 40.33 216.97 38.67 217.00 37.00
C 217.33 19.10 227.89 6.24 245.00 2.00
C 246.92 1.53 249.63 1.11 251.00 0.00
L 0.00 0.00
L 0.00 139.00 Z"/>
</g>
<g fill="None" fill-opacity="0.0" stroke="#F26547" stroke-opacity="0.75" stroke-width="0.3"><path d="
M 245.00 2.00 
C 248.73 1.98 254.51 3.00 259.00 3.00
C 264.11 3.00 274.41 5.04 279.00 3.00
C 279.00 2.50 279.02 1.00 279.00 1.00
C 278.00 0.96 277.00 1.00 276.00 1.00
C 274.33 1.00 272.67 1.00 271.00 1.00
C 265.84 1.00 259.34 1.83 255.00 0.00
L 251.00 0.00
C 249.63 1.11 246.92 1.53 245.00 2.00 Z"/>
</g>
<g fill="None" fill-opacity="0.0" stroke="#F1674A" stroke-opacity="0.56" stroke-width="0.3"><path d="
M 271.00 1.00 
C 270.85 0.95 271.00 0.00 271.00 0.00
L 255.00 0.00
C 259.34 1.83 265.84 1.00 271.00 1.00 Z"/>
</g>
<g fill="None" fill-opacity="0.0" stroke="#F15B4A" stroke-opacity="0.23" stroke-width="0.3"><path d="
M 271.00 1.00 
C 272.67 1.00 274.33 1.00 276.00 1.00
C 276.00 1.00 276.00 0.50 276.00 0.00
L 271.00 0.00
C 271.00 0.00 270.85 0.95 271.00 1.00 Z"/>
</g>
<g fill="None" fill-opacity="0.0" stroke="#E9354A" stroke-opacity="0.17" stroke-width="0.3"><path d="
M 279.00 3.00 
C 279.00 10.33 279.00 17.67 279.00 25.00
C 279.00 38.67 279.00 52.33 279.00 66.00
C 279.27 65.75 280.00 66.00 280.00 66.00
C 280.00 60.74 280.10 54.13 280.00 49.00 C 279.90 43.87 280.30 37.69 280.00 33.00 C 279.70 28.31 280.64 19.81 280.00 16.00 C 279.36 12.19 281.98 1.86 279.00 1.00
C 279.02 1.00 279.00 2.50 279.00 3.00 Z"/>
</g>
<g fill="None" fill-opacity="0.0" stroke="#F86837" stroke-opacity="0.98" stroke-width="0.3"><path d="
M 217.00 37.00 
C 217.76 49.90 218.00 64.38 218.00 78.00
C 219.87 71.73 229.45 67.53 232.77 60.77 C 236.09 54.01 242.83 50.16 245.26 43.25 C 247.70 36.34 253.35 31.46 255.39 25.25 C 257.44 19.03 265.10 11.98 265.00 4.00
C 263.12 3.53 260.07 5.06 259.00 3.00
C 254.51 3.00 248.73 1.98 245.00 2.00
C 227.89 6.24 217.33 19.10 217.00 37.00 Z"/>
</g>
<g fill="None" fill-opacity="0.0" stroke="#F5594E" stroke-opacity="1.00" stroke-width="0.3"><path d="
M 218.00 78.00 
C 218.00 79.33 218.00 80.67 218.00 82.00
C 218.00 90.00 218.00 98.00 218.00 106.00
C 222.37 105.03 226.74 100.68 228.00 96.00
C 240.92 91.09 250.31 77.02 257.92 64.92 C 265.53 52.82 274.26 38.75 279.00 25.00
C 279.00 17.67 279.00 10.33 279.00 3.00
C 274.41 5.04 264.11 3.00 259.00 3.00
C 260.07 5.06 263.12 3.53 265.00 4.00
C 265.10 11.98 257.44 19.03 255.39 25.25 C 253.35 31.46 247.70 36.34 245.26 43.25 C 242.83 50.16 236.09 54.01 232.77 60.77 C 229.45 67.53 219.87 71.73 218.00 78.00 Z"/>
</g>
<g fill="None" fill-opacity="0.0" stroke="#F75263" stroke-opacity="1.00" stroke-width="0.3"><path d="
M 218.00 106.00 
C 218.00 116.00 218.00 126.00 218.00 136.00
C 224.83 134.96 231.77 127.96 226.00 124.00
C 232.78 119.62 238.74 106.91 246.00 110.00
C 245.94 104.29 252.76 102.25 254.00 97.00
C 259.48 100.46 264.87 91.70 266.78 85.78 C 268.69 79.85 277.09 75.06 279.00 69.00
C 279.00 68.00 279.00 67.00 279.00 66.00
C 279.00 52.33 279.00 38.67 279.00 25.00
C 274.26 38.75 265.53 52.82 257.92 64.92 C 250.31 77.02 240.92 91.09 228.00 96.00
C 226.74 100.68 222.37 105.03 218.00 106.00 Z"/>
</g>
<g fill="None" fill-opacity="0.0" stroke="#FC6A3D" stroke-opacity="0.82" stroke-width="0.3"><path d="
M 217.00 42.00 
C 217.00 55.33 217.00 68.67 217.00 82.00
C 217.00 81.96 218.00 82.00 218.00 82.00
C 218.00 80.67 218.00 79.33 218.00 78.00
C 218.00 64.38 217.76 49.90 217.00 37.00
C 216.97 38.67 217.00 40.33 217.00 42.00 Z"/>
</g>
<g fill="None" fill-opacity="0.0" stroke="#FFFFFF" stroke-opacity="0.01" stroke-width="0.3"><path d="
M 217.00 215.00 
C 217.00 213.67 217.00 212.33 217.00 211.00
C 217.00 189.67 217.00 168.33 217.00 147.00
C 217.00 125.33 217.00 103.67 217.00 82.00
C 217.00 68.67 217.00 55.33 217.00 42.00
C 214.05 69.66 216.12 100.49 216.00 129.00 C 215.88 157.51 214.32 187.33 217.00 215.00 Z"/>
</g>
<g fill="None" fill-opacity="0.0" stroke="#F40F6B" stroke-opacity="0.18" stroke-width="0.3"><path d="
M 279.00 69.00 
C 279.00 89.67 279.00 110.33 279.00 131.00
C 279.00 148.33 279.00 165.67 279.00 183.00
C 279.00 188.00 279.00 193.00 279.00 198.00
C 279.00 197.96 280.00 198.00 280.00 198.00
C 280.00 154.00 280.00 110.00 280.00 66.00
C 280.00 66.00 279.27 65.75 279.00 66.00
C 279.00 67.00 279.00 68.00 279.00 69.00 Z"/>
</g>
<g fill="None" fill-opacity="0.0" stroke="#F9537B" stroke-opacity="1.00" stroke-width="0.3"><path d="
M 218.00 136.00 
C 218.00 139.67 218.00 143.33 218.00 147.00
C 218.00 150.67 218.00 154.33 218.00 158.00
C 222.07 164.25 232.71 156.02 237.00 156.00
C 237.07 153.34 236.71 153.18 239.00 150.00
C 244.25 153.83 248.75 145.54 251.00 141.00
C 256.16 141.83 260.46 136.50 263.00 133.00
C 268.59 133.57 274.07 132.94 279.00 131.00
C 279.00 110.33 279.00 89.67 279.00 69.00
C 277.09 75.06 268.69 79.85 266.78 85.78 C 264.87 91.70 259.48 100.46 254.00 97.00
C 252.76 102.25 245.94 104.29 246.00 110.00
C 238.74 106.91 232.78 119.62 226.00 124.00
C 231.77 127.96 224.83 134.96 218.00 136.00 Z"/>
</g>
<g fill="None" fill-opacity="0.0" stroke="#C440E1" stroke-opacity="0.98" stroke-width="0.3"><path d="
M 355.00 110.00 
C 358.48 109.03 361.12 117.25 366.00 114.00
C 365.97 117.79 370.59 119.78 374.00 118.00
C 376.51 123.48 386.37 124.68 392.00 125.00
C 391.72 127.96 387.80 127.91 388.00 131.00
C 391.54 131.32 395.59 133.27 399.00 131.00
C 400.40 135.55 407.19 135.92 411.00 134.00
C 413.06 133.36 416.38 134.38 414.00 131.00
C 410.81 132.96 406.79 129.75 407.00 126.00
C 413.57 125.86 417.76 120.76 425.00 122.00
C 421.83 112.96 433.63 113.84 435.00 108.00
C 443.63 107.70 451.54 108.90 461.00 109.00
C 453.11 96.25 448.90 81.97 433.07 79.93 C 417.24 77.88 399.90 78.10 385.70 84.69 C 371.49 91.29 365.63 99.37 355.00 110.00 Z"/>
</g>
<g fill="None" fill-opacity="0.0" stroke="#FF9337" stroke-opacity="0.98" stroke-width="0.3"><path d="
M 0.00 139.00 
L 0.00 143.00
C 1.61 147.26 1.70 154.81 0.00 159.00
L 0.00 163.00
C 3.59 176.34 10.34 189.79 22.00 199.00
C 20.37 197.20 19.88 193.74 17.00 193.00
C 20.63 191.46 18.07 191.75 19.00 189.00
C 14.90 191.10 15.44 186.71 14.00 184.00
C 20.62 181.68 29.63 181.80 33.00 175.00
C 39.64 176.37 44.85 174.71 50.00 170.00
C 48.33 167.71 46.24 164.46 42.00 164.00
C 43.35 160.92 42.81 159.62 43.00 157.00
C 49.48 159.13 56.62 156.94 62.00 154.00
C 55.43 141.06 77.05 136.54 85.00 136.00
C 88.23 135.42 92.12 134.92 96.00 135.00
C 96.05 134.98 97.18 132.05 98.00 132.00
C 94.99 132.21 92.23 133.56 89.00 133.00
C 89.51 130.81 86.96 128.19 92.00 128.00
C 91.24 126.19 86.91 126.55 89.00 124.00
C 87.48 122.23 92.17 120.01 94.00 120.00
C 90.93 115.08 97.32 111.32 100.80 107.75 C 104.28 104.18 110.21 100.26 115.00 97.00
C 112.13 94.94 118.14 91.60 120.75 88.75 C 123.37 85.91 126.45 79.86 131.00 80.00
C 81.55 75.21 11.88 80.42 0.00 139.00 Z"/>
</g>
<g fill="None" fill-opacity="0.0" stroke="#FE7C3A" stroke-opacity="0.99" stroke-width="0.3"><path d="
M 96.00 135.00 
C 98.41 135.05 101.30 135.84 103.00 136.00
C 115.54 136.00 127.72 137.33 140.00 138.00
C 138.38 137.07 145.96 132.55 148.23 130.23 C 150.51 127.91 151.32 122.74 149.00 120.00
C 157.04 118.86 159.86 110.05 163.00 106.00
C 156.68 100.40 165.34 96.30 170.00 93.00
C 165.76 88.47 176.66 87.31 174.00 83.00
C 159.74 81.14 145.56 81.41 131.00 80.00
C 126.45 79.86 123.37 85.91 120.75 88.75 C 118.14 91.60 112.13 94.94 115.00 97.00
C 110.21 100.26 104.28 104.18 100.80 107.75 C 97.32 111.32 90.93 115.08 94.00 120.00
C 92.17 120.01 87.48 122.23 89.00 124.00
C 86.91 126.55 91.24 126.19 92.00 128.00
C 86.96 128.19 89.51 130.81 89.00 133.00
C 92.23 133.56 94.99 132.21 98.00 132.00
C 97.18 132.05 96.05 134.98 96.00 135.00 Z"/>
</g>
<g fill="None" fill-opacity="0.0" stroke="#4C71FF" stroke-opacity="0.96" stroke-width="0.3"><path d="
M 566.00 110.00 
C 565.05 112.64 564.00 115.35 563.00 118.00
C 563.25 119.10 563.39 119.99 564.00 121.00
C 571.34 119.75 578.70 117.94 585.75 111.75 C 592.80 105.57 602.56 104.61 611.07 102.07 C 619.58 99.54 628.06 92.27 637.00 94.00
C 637.69 92.49 639.28 90.44 640.00 89.00
L 640.00 86.00
C 633.17 82.85 625.50 80.66 618.00 80.00
C 615.26 80.02 609.69 80.05 607.00 80.00
C 589.37 81.40 572.14 92.95 566.00 110.00 Z"/>
</g>
<g fill="None" fill-opacity="0.0" stroke="#0034FF" stroke-opacity="0.38" stroke-width="0.3"><path d="
M 618.00 80.00 
C 614.51 79.69 610.50 79.72 607.00 80.00
C 609.69 80.05 615.26 80.02 618.00 80.00 Z"/>
</g>
<g fill="None" fill-opacity="0.0" stroke="#FD6568" stroke-opacity="0.85" stroke-width="0.3"><path d="
M 217.00 147.00 
C 217.00 146.96 218.00 147.00 218.00 147.00
C 218.00 143.33 218.00 139.67 218.00 136.00
C 218.00 126.00 218.00 116.00 218.00 106.00
C 218.00 98.00 218.00 90.00 218.00 82.00
C 218.00 82.00 217.00 81.96 217.00 82.00
C 217.00 103.67 217.00 125.33 217.00 147.00 Z"/>
</g>
<g fill="None" fill-opacity="0.0" stroke="#FE6C46" stroke-opacity="0.96" stroke-width="0.3"><path d="
M 140.00 138.00 
C 172.80 146.01 191.62 112.23 183.00 84.00
C 179.88 83.59 177.13 83.41 174.00 83.00
C 176.66 87.31 165.76 88.47 170.00 93.00
C 165.34 96.30 156.68 100.40 163.00 106.00
C 159.86 110.05 157.04 118.86 149.00 120.00
C 151.32 122.74 150.51 127.91 148.23 130.23 C 145.96 132.55 138.38 137.07 140.00 138.00 Z"/>
</g>
<g fill="None" fill-opacity="0.0" stroke="#000000" stroke-opacity="0.00" stroke-width="0.3"><path d="
M 637.00 94.00 
C 630.09 109.12 623.60 124.71 617.00 140.00
C 609.29 157.86 600.62 175.13 593.00 193.00
C 583.53 215.20 572.54 237.16 563.00 259.00
C 557.19 272.31 550.94 286.00 545.00 299.00
C 537.56 315.26 530.22 333.56 522.70 349.69 C 515.17 365.83 508.71 384.16 490.00 390.00
C 488.03 390.61 485.41 390.79 484.00 392.00
L 640.00 392.00
L 640.00 89.00
C 639.28 90.44 637.69 92.49 637.00 94.00 Z"/>
</g>
<g fill="None" fill-opacity="0.0" stroke="#6485FE" stroke-opacity="0.98" stroke-width="0.3"><path d="
M 563.00 118.00 
C 562.94 118.16 562.00 118.00 562.00 118.00
C 555.65 132.71 548.97 147.14 543.00 162.00
C 549.98 151.82 566.32 153.03 577.00 152.00
C 588.05 150.93 609.17 149.53 617.00 140.00
C 623.60 124.71 630.09 109.12 637.00 94.00
C 628.06 92.27 619.58 99.54 611.07 102.07 C 602.56 104.61 592.80 105.57 585.75 111.75 C 578.70 117.94 571.34 119.75 564.00 121.00
C 563.39 119.99 563.25 119.10 563.00 118.00 Z"/>
</g>
<g fill="None" fill-opacity="0.0" stroke="#BF5CF2" stroke-opacity="0.98" stroke-width="0.3"><path d="
M 411.00 134.00 
C 410.59 135.56 411.46 136.69 412.00 138.00
C 408.62 136.87 403.30 141.84 404.00 144.00
C 405.53 140.88 407.56 140.59 408.00 141.00
C 414.42 146.93 420.40 159.64 425.00 167.00
C 435.75 173.95 457.31 167.94 470.00 166.00
C 478.78 164.66 490.35 162.77 497.00 168.00
C 485.14 148.43 473.15 128.62 461.00 109.00
C 451.54 108.90 443.63 107.70 435.00 108.00
C 433.63 113.84 421.83 112.96 425.00 122.00
C 417.76 120.76 413.57 125.86 407.00 126.00
C 406.79 129.75 410.81 132.96 414.00 131.00
C 416.38 134.38 413.06 133.36 411.00 134.00 Z"/>
</g>
<g fill="None" fill-opacity="0.0" stroke="#DF59D4" stroke-opacity="0.99" stroke-width="0.3"><path d="
M 355.00 110.00 
C 345.75 119.25 336.65 128.97 328.00 139.00
C 327.34 138.98 331.93 145.30 329.00 146.00
C 336.27 142.55 340.33 149.92 347.00 146.00
C 347.31 153.13 338.65 153.56 336.00 158.00
C 338.74 158.29 344.11 156.65 344.00 161.00
C 335.08 165.02 346.49 176.82 342.00 184.00
C 348.64 183.05 357.93 181.33 364.07 180.07 C 370.22 178.82 374.78 170.67 379.00 171.00
C 379.22 170.74 379.73 170.21 380.00 170.00
C 379.76 166.94 384.76 164.96 386.00 164.00
C 391.58 157.54 398.51 150.38 404.00 144.00
C 403.30 141.84 408.62 136.87 412.00 138.00
C 411.46 136.69 410.59 135.56 411.00 134.00
C 407.19 135.92 400.40 135.55 399.00 131.00
C 395.59 133.27 391.54 131.32 388.00 131.00
C 387.80 127.91 391.72 127.96 392.00 125.00
C 386.37 124.68 376.51 123.48 374.00 118.00
C 370.59 119.78 365.97 117.79 366.00 114.00
C 361.12 117.25 358.48 109.03 355.00 110.00 Z"/>
</g>
<g fill="None" fill-opacity="0.0" stroke="#D6DDFF" stroke-opacity="0.18" stroke-width="0.3"><path d="
M 562.00 118.00 
C 562.00 118.00 562.94 118.16 563.00 118.00
C 564.00 115.35 565.05 112.64 566.00 110.00
C 564.77 112.48 563.17 115.29 562.00 118.00 Z"/>
</g>
<g fill="None" fill-opacity="0.0" stroke="#FD629C" stroke-opacity="1.00" stroke-width="0.3"><path d="
M 218.00 158.00 
C 218.00 175.00 218.00 192.00 218.00 209.00
C 223.78 195.38 249.16 197.73 261.00 196.00
C 267.84 195.00 277.36 190.93 279.00 183.00
C 279.00 165.67 279.00 148.33 279.00 131.00
C 274.07 132.94 268.59 133.57 263.00 133.00
C 260.46 136.50 256.16 141.83 251.00 141.00
C 248.75 145.54 244.25 153.83 239.00 150.00
C 236.71 153.18 237.07 153.34 237.00 156.00
C 232.71 156.02 222.07 164.25 218.00 158.00 Z"/>
</g>
<g fill="None" fill-opacity="0.0" stroke="#FF6D1B" stroke-opacity="0.35" stroke-width="0.3"><path d="
M 85.00 136.00 
C 90.94 135.60 97.05 136.00 103.00 136.00
C 101.30 135.84 98.41 135.05 96.00 135.00
C 92.12 134.92 88.23 135.42 85.00 136.00 Z"/>
</g>
<g fill="None" fill-opacity="0.0" stroke="#F062C1" stroke-opacity="0.98" stroke-width="0.3"><path d="
M 282.00 190.00 
C 296.72 192.50 311.61 188.01 326.00 186.00
C 331.40 185.25 336.65 184.76 342.00 184.00
C 346.49 176.82 335.08 165.02 344.00 161.00
C 344.11 156.65 338.74 158.29 336.00 158.00
C 338.65 153.56 347.31 153.13 347.00 146.00
C 340.33 149.92 336.27 142.55 329.00 146.00
C 331.93 145.30 327.34 138.98 328.00 139.00
C 323.40 144.33 316.43 150.54 312.25 156.25 C 308.07 161.96 299.90 166.91 296.75 172.75 C 293.61 178.60 282.44 183.55 282.00 190.00 Z"/>
</g>
<g fill="None" fill-opacity="0.0" stroke="#BA06DA" stroke-opacity="0.47" stroke-width="0.3"><path d="
M 404.00 144.00 
C 404.90 142.95 407.14 142.16 408.00 141.00
C 407.56 140.59 405.53 140.88 404.00 144.00 Z"/>
</g>
<g fill="None" fill-opacity="0.0" stroke="#1F46FD" stroke-opacity="0.98" stroke-width="0.3"><path d="
M 577.00 152.00 
C 577.95 152.23 579.04 151.82 580.00 152.00
C 577.48 157.11 574.53 161.78 571.25 166.25 C 567.96 170.71 567.65 177.66 563.70 181.70 C 559.74 185.74 560.28 193.42 556.23 197.23 C 552.18 201.04 549.74 208.03 545.00 208.00
C 546.09 215.49 541.40 223.01 537.08 228.08 C 532.77 233.15 529.82 241.49 525.00 241.00
C 519.10 256.52 507.68 270.69 498.70 284.70 C 489.71 298.70 479.22 313.93 470.00 325.00
C 460.09 344.86 450.38 365.59 441.00 386.00
C 447.19 388.22 453.24 390.92 460.00 391.00
C 461.00 391.05 462.00 390.96 463.00 391.00
C 464.97 376.77 468.31 359.24 474.77 346.77 C 481.23 334.30 489.59 324.13 497.25 313.25 C 504.91 302.36 515.11 292.75 522.75 282.75 C 530.39 272.75 536.66 260.89 545.31 251.31 C 553.95 241.72 554.24 225.24 564.31 218.30 C 574.37 211.37 583.33 200.90 593.00 193.00
C 600.62 175.13 609.29 157.86 617.00 140.00
C 609.17 149.53 588.05 150.93 577.00 152.00 Z"/>
</g>
<g fill="None" fill-opacity="0.0" stroke="#FF9931" stroke-opacity="0.65" stroke-width="0.3"><path d="
M 0.00 159.00 
C 1.70 154.81 1.61 147.26 0.00 143.00
L 0.00 159.00 Z"/>
</g>
<g fill="None" fill-opacity="0.0" stroke="#FE769B" stroke-opacity="0.87" stroke-width="0.3"><path d="
M 217.00 211.00 
C 217.13 210.78 218.00 211.00 218.00 211.00
C 218.00 210.50 218.00 209.50 218.00 209.00
C 218.00 192.00 218.00 175.00 218.00 158.00
C 218.00 154.33 218.00 150.67 218.00 147.00
C 218.00 147.00 217.00 146.96 217.00 147.00
C 217.00 168.33 217.00 189.67 217.00 211.00 Z"/>
</g>
<g fill="None" fill-opacity="0.0" stroke="#3130FD" stroke-opacity="0.98" stroke-width="0.3"><path d="
M 543.00 162.00 
C 537.32 177.60 529.65 192.44 524.00 208.00
C 522.00 208.31 520.91 206.18 520.00 205.00
C 520.56 211.57 513.82 222.10 513.01 229.01 C 512.20 235.92 502.82 242.86 502.68 250.68 C 502.54 258.49 491.49 264.08 491.00 271.00
C 495.69 279.23 485.43 290.02 482.31 298.31 C 479.18 306.59 473.61 316.73 470.00 325.00
C 479.22 313.93 489.71 298.70 498.70 284.70 C 507.68 270.69 519.10 256.52 525.00 241.00
C 529.82 241.49 532.77 233.15 537.08 228.08 C 541.40 223.01 546.09 215.49 545.00 208.00
C 549.74 208.03 552.18 201.04 556.23 197.23 C 560.28 193.42 559.74 185.74 563.70 181.70 C 567.65 177.66 567.96 170.71 571.25 166.25 C 574.53 161.78 577.48 157.11 580.00 152.00
C 579.04 151.82 577.95 152.23 577.00 152.00
C 566.32 153.03 549.98 151.82 543.00 162.00 Z"/>
</g>
<g fill="None" fill-opacity="0.0" stroke="#FF9262" stroke-opacity="0.98" stroke-width="0.3"><path d="
M 22.00 199.00 
C 27.69 203.49 33.46 206.94 40.00 210.00
C 42.55 210.54 47.45 211.13 51.00 212.00
C 55.43 204.06 61.46 195.28 71.07 195.07 C 80.69 194.86 82.76 182.93 94.00 183.00
C 87.94 180.78 98.33 178.72 101.01 177.01 C 103.69 175.30 109.55 170.33 109.00 168.00
C 101.79 166.66 89.79 164.41 83.02 162.98 C 76.25 161.54 65.31 160.52 62.00 154.00
C 56.62 156.94 49.48 159.13 43.00 157.00
C 42.81 159.62 43.35 160.92 42.00 164.00
C 46.24 164.46 48.33 167.71 50.00 170.00
C 44.85 174.71 39.64 176.37 33.00 175.00
C 29.63 181.80 20.62 181.68 14.00 184.00
C 15.44 186.71 14.90 191.10 19.00 189.00
C 18.07 191.75 20.63 191.46 17.00 193.00
C 19.88 193.74 20.37 197.20 22.00 199.00 Z"/>
</g>
<g fill="None" fill-opacity="0.0" stroke="#C60BCC" stroke-opacity="0.44" stroke-width="0.3"><path d="
M 380.00 170.00 
C 382.27 168.23 384.09 166.21 386.00 164.00
C 384.76 164.96 379.76 166.94 380.00 170.00 Z"/>
</g>
<g fill="None" fill-opacity="0.0" stroke="#6711F8" stroke-opacity="0.98" stroke-width="0.3"><path d="
M 470.00 166.00 
C 465.44 168.97 463.91 183.33 462.07 189.07 C 460.24 194.82 453.61 207.34 454.00 213.00
C 466.52 231.82 479.89 251.48 491.00 271.00
C 491.49 264.08 502.54 258.49 502.68 250.68 C 502.82 242.86 512.20 235.92 513.01 229.01 C 513.82 222.10 520.56 211.57 520.00 205.00
C 511.50 194.01 504.17 179.83 497.00 168.00
C 490.35 162.77 478.78 164.66 470.00 166.00 Z"/>
</g>
<g fill="None" fill-opacity="0.0" stroke="#9602EF" stroke-opacity="0.96" stroke-width="0.3"><path d="
M 425.00 167.00 
C 434.51 182.20 444.05 198.04 454.00 213.00
C 453.61 207.34 460.24 194.82 462.07 189.07 C 463.91 183.33 465.44 168.97 470.00 166.00
C 457.31 167.94 435.75 173.95 425.00 167.00 Z"/>
</g>
<g fill="None" fill-opacity="0.0" stroke="#FF8A78" stroke-opacity="0.99" stroke-width="0.3"><path d="
M 51.00 212.00 
C 60.79 214.39 72.32 216.06 82.00 217.00
C 91.39 217.91 102.02 217.25 111.00 216.00
C 119.02 211.19 123.91 199.36 130.00 193.00
C 126.79 194.51 124.50 190.65 121.00 193.00
C 127.47 184.89 142.05 185.32 145.00 175.00
C 133.33 171.36 121.02 170.24 109.00 168.00
C 109.55 170.33 103.69 175.30 101.01 177.01 C 98.33 178.72 87.94 180.78 94.00 183.00
C 82.76 182.93 80.69 194.86 71.07 195.07 C 61.46 195.28 55.43 204.06 51.00 212.00 Z"/>
</g>
<g fill="None" fill-opacity="0.0" stroke="#DF02BC" stroke-opacity="0.98" stroke-width="0.3"><path d="
M 342.00 184.00 
C 336.65 184.76 331.40 185.25 326.00 186.00
C 321.16 193.45 324.79 204.12 318.75 210.75 C 312.71 217.39 310.15 227.59 310.00 235.00
C 320.23 250.37 330.35 266.41 340.00 282.00
C 340.25 276.63 345.35 270.04 345.78 263.78 C 346.20 257.51 350.67 250.77 351.33 244.33 C 351.99 237.89 354.53 230.89 356.93 224.93 C 359.33 218.96 360.88 212.13 364.00 207.00
C 361.22 203.43 359.43 198.90 356.00 196.00
C 361.00 190.41 366.69 185.04 371.00 179.00
C 372.46 176.96 374.15 175.54 376.00 174.00
C 377.17 173.03 377.98 172.20 379.00 171.00
C 374.78 170.67 370.22 178.82 364.07 180.07 C 357.93 181.33 348.64 183.05 342.00 184.00 Z"/>
</g>
<g fill="None" fill-opacity="0.0" stroke="#CB00C9" stroke-opacity="0.36" stroke-width="0.3"><path d="
M 371.00 179.00 
C 372.24 177.52 374.54 175.43 376.00 174.00
C 374.15 175.54 372.46 176.96 371.00 179.00 Z"/>
</g>
<g fill="None" fill-opacity="0.0" stroke="#FF7B87" stroke-opacity="0.98" stroke-width="0.3"><path d="
M 111.00 216.00 
C 118.03 215.02 124.90 214.86 132.00 214.00
C 141.13 212.90 153.63 209.43 163.02 209.02 C 172.41 208.62 186.48 207.74 193.00 215.00
C 185.17 194.30 165.12 181.28 145.00 175.00
C 142.05 185.32 127.47 184.89 121.00 193.00
C 124.50 190.65 126.79 194.51 130.00 193.00
C 123.91 199.36 119.02 211.19 111.00 216.00 Z"/>
</g>
<g fill="None" fill-opacity="0.0" stroke="#FC018F" stroke-opacity="0.99" stroke-width="0.3"><path d="
M 261.00 196.00 
C 265.23 198.57 254.23 202.53 255.23 208.23 C 256.23 213.93 247.78 213.54 247.25 221.25 C 246.71 228.96 237.69 239.40 233.25 246.25 C 228.81 253.10 227.65 252.70 226.08 259.08 C 224.50 265.46 219.89 266.88 218.00 272.00
C 218.00 285.17 218.83 299.66 217.00 312.00
C 219.20 315.15 228.78 313.41 233.98 313.98 C 239.17 314.54 242.16 312.93 250.33 312.33 C 258.50 311.73 270.21 307.70 275.23 300.23 C 280.25 292.76 278.71 293.73 279.00 286.00
C 280.12 256.76 279.00 227.26 279.00 198.00
C 279.00 193.00 279.00 188.00 279.00 183.00
C 277.36 190.93 267.84 195.00 261.00 196.00 Z"/>
</g>
<g fill="None" fill-opacity="0.0" stroke="#EF029E" stroke-opacity="0.97" stroke-width="0.3"><path d="
M 282.00 190.00 
C 281.50 197.37 292.97 206.32 295.75 213.25 C 298.52 220.19 305.85 228.76 310.00 235.00
C 310.15 227.59 312.71 217.39 318.75 210.75 C 324.79 204.12 321.16 193.45 326.00 186.00
C 311.61 188.01 296.72 192.50 282.00 190.00 Z"/>
</g>
<g fill="None" fill-opacity="0.0" stroke="#165AFE" stroke-opacity="0.98" stroke-width="0.3"><path d="
M 460.00 391.00 
C 460.00 391.00 460.00 391.50 460.00 392.00
L 477.00 392.00
C 475.15 382.89 479.48 367.32 483.33 357.33 C 487.18 347.34 492.86 336.66 499.30 328.30 C 505.74 319.94 512.83 311.77 519.77 303.77 C 526.71 295.77 534.20 287.74 541.25 280.25 C 548.29 272.76 557.24 265.04 563.00 259.00
C 572.54 237.16 583.53 215.20 593.00 193.00
C 583.33 200.90 574.37 211.37 564.31 218.30 C 554.24 225.24 553.95 241.72 545.31 251.31 C 536.66 260.89 530.39 272.75 522.75 282.75 C 515.11 292.75 504.91 302.36 497.25 313.25 C 489.59 324.13 481.23 334.30 474.77 346.77 C 468.31 359.24 464.97 376.77 463.00 391.00
C 462.00 390.96 461.00 391.05 460.00 391.00 Z"/>
</g>
<g fill="None" fill-opacity="0.0" stroke="#FE0072" stroke-opacity="1.00" stroke-width="0.3"><path d="
M 218.00 209.00 
C 218.00 209.50 218.00 210.50 218.00 211.00
C 218.00 231.33 218.00 251.67 218.00 272.00
C 219.89 266.88 224.50 265.46 226.08 259.08 C 227.65 252.70 228.81 253.10 233.25 246.25 C 237.69 239.40 246.71 228.96 247.25 221.25 C 247.78 213.54 256.23 213.93 255.23 208.23 C 254.23 202.53 265.23 198.57 261.00 196.00
C 249.16 197.73 223.78 195.38 218.00 209.00 Z"/>
</g>
<g fill="None" fill-opacity="0.0" stroke="#F8019A" stroke-opacity="0.17" stroke-width="0.3"><path d="
M 279.00 286.00 
C 282.95 258.35 280.00 226.65 280.00 198.00
C 280.00 198.00 279.00 197.96 279.00 198.00
C 279.00 227.26 280.12 256.76 279.00 286.00 Z"/>
</g>
<g fill="None" fill-opacity="0.0" stroke="#C801D5" stroke-opacity="0.98" stroke-width="0.3"><path d="
M 340.00 282.00 
C 346.53 292.56 352.92 301.02 364.00 307.00
C 368.34 305.81 367.39 295.75 370.78 292.78 C 374.16 289.81 375.58 282.96 377.97 278.97 C 380.37 274.99 382.82 268.78 384.31 264.31 C 385.79 259.83 390.76 253.45 391.00 249.00
C 381.79 235.44 373.01 220.96 364.00 207.00
C 360.88 212.13 359.33 218.96 356.93 224.93 C 354.53 230.89 351.99 237.89 351.33 244.33 C 350.67 250.77 346.20 257.51 345.78 263.78 C 345.35 270.04 340.25 276.63 340.00 282.00 Z"/>
</g>
<g fill="None" fill-opacity="0.0" stroke="#FF5021" stroke-opacity="0.80" stroke-width="0.3"><path d="
M 40.00 210.00 
C 51.63 215.44 63.61 216.34 76.00 219.00
C 77.38 218.79 79.56 217.19 82.00 217.00
C 72.32 216.06 60.79 214.39 51.00 212.00
C 47.45 211.13 42.55 210.54 40.00 210.00 Z"/>
</g>
<g fill="None" fill-opacity="0.0" stroke="#FE104C" stroke-opacity="0.99" stroke-width="0.3"><path d="
M 132.00 214.00 
C 126.41 216.73 122.28 226.61 117.00 228.00
C 124.32 230.10 137.97 235.58 134.30 245.30 C 130.64 255.03 119.53 256.20 111.00 257.00
C 109.26 257.40 107.33 257.98 105.00 258.00
C 96.77 275.16 86.03 292.41 84.00 312.00
C 80.83 312.61 76.35 310.75 74.00 313.00
C 95.45 313.00 117.12 313.62 137.00 309.00
C 134.42 307.39 139.06 295.55 140.92 291.92 C 142.79 288.30 147.17 280.90 148.92 275.92 C 150.68 270.95 154.82 265.58 158.77 261.77 C 162.71 257.96 167.39 253.93 170.75 249.75 C 174.12 245.57 180.23 242.17 182.77 237.77 C 185.31 233.37 194.59 231.56 196.00 227.00
C 195.33 222.31 194.64 219.34 193.00 215.00
C 186.48 207.74 172.41 208.62 163.02 209.02 C 153.63 209.43 141.13 212.90 132.00 214.00 Z"/>
</g>
<g fill="None" fill-opacity="0.0" stroke="#FE0278" stroke-opacity="0.80" stroke-width="0.3"><path d="
M 217.00 215.00 
C 217.00 221.49 216.91 228.57 217.00 235.00 C 217.09 241.43 216.74 247.70 217.00 254.00 C 217.26 260.30 216.43 267.94 217.00 274.00 C 217.57 280.06 215.66 287.54 217.00 293.00 C 218.34 298.46 214.00 307.72 217.00 312.00
C 218.83 299.66 218.00 285.17 218.00 272.00
C 218.00 251.67 218.00 231.33 218.00 211.00
C 218.00 211.00 217.13 210.78 217.00 211.00
C 217.00 212.33 217.00 213.67 217.00 215.00 Z"/>
</g>
<g fill="None" fill-opacity="0.0" stroke="#FF3130" stroke-opacity="0.93" stroke-width="0.3"><path d="
M 111.00 216.00 
C 102.02 217.25 91.39 217.91 82.00 217.00
C 79.56 217.19 77.38 218.79 76.00 219.00
C 89.08 221.80 103.78 224.21 117.00 228.00
C 122.28 226.61 126.41 216.73 132.00 214.00
C 124.90 214.86 118.03 215.02 111.00 216.00 Z"/>
</g>
<g fill="None" fill-opacity="0.0" stroke="#FE0065" stroke-opacity="0.97" stroke-width="0.3"><path d="
M 137.00 309.00 
C 155.25 304.75 171.35 298.57 184.08 283.08 C 196.81 267.59 198.70 245.90 196.00 227.00
C 194.59 231.56 185.31 233.37 182.77 237.77 C 180.23 242.17 174.12 245.57 170.75 249.75 C 167.39 253.93 162.71 257.96 158.77 261.77 C 154.82 265.58 150.68 270.95 148.92 275.92 C 147.17 280.90 142.79 288.30 140.92 291.92 C 139.06 295.55 134.42 307.39 137.00 309.00 Z"/>
</g>
<g fill="None" fill-opacity="0.0" stroke="#A304E8" stroke-opacity="0.96" stroke-width="0.3"><path d="
M 364.00 307.00 
C 383.22 318.35 409.61 314.68 430.00 308.00
C 418.74 287.54 404.10 268.29 391.00 249.00
C 390.76 253.45 385.79 259.83 384.31 264.31 C 382.82 268.78 380.37 274.99 377.97 278.97 C 375.58 282.96 374.16 289.81 370.78 292.78 C 367.39 295.75 368.34 305.81 364.00 307.00 Z"/>
</g>
<g fill="None" fill-opacity="0.0" stroke="#FF3F1E" stroke-opacity="0.98" stroke-width="0.3"><path d="
M 57.00 312.00 
C 60.68 310.38 61.80 298.02 64.92 293.92 C 68.03 289.81 68.58 278.90 72.92 274.92 C 77.25 270.93 75.63 259.06 81.00 256.00
C 71.40 255.35 60.65 254.02 51.00 254.00 C 41.35 253.98 31.36 252.91 23.08 257.08 C 14.79 261.24 11.95 264.70 8.78 273.78 C 5.60 282.85 5.60 290.43 6.00 301.00 C 6.40 311.57 18.99 308.63 27.93 310.07 C 36.86 311.51 47.61 311.09 57.00 312.00 Z"/>
</g>
<g fill="None" fill-opacity="0.0" stroke="#FF2534" stroke-opacity="0.98" stroke-width="0.3"><path d="
M 57.00 312.00 
C 61.97 312.48 68.28 313.00 74.00 313.00
C 76.35 310.75 80.83 312.61 84.00 312.00
C 86.03 292.41 96.77 275.16 105.00 258.00
C 102.35 258.03 99.97 257.38 98.00 257.00
C 92.48 256.56 86.76 256.39 81.00 256.00
C 75.63 259.06 77.25 270.93 72.92 274.92 C 68.58 278.90 68.03 289.81 64.92 293.92 C 61.80 298.02 60.68 310.38 57.00 312.00 Z"/>
</g>
<g fill="None" fill-opacity="0.0" stroke="#FE1E3B" stroke-opacity="0.83" stroke-width="0.3"><path d="
M 105.00 258.00 
C 107.33 257.98 109.26 257.40 111.00 257.00
C 106.89 257.39 102.12 257.33 98.00 257.00
C 99.97 257.38 102.35 258.03 105.00 258.00 Z"/>
</g>
<g fill="None" fill-opacity="0.0" stroke="#096EFE" stroke-opacity="0.98" stroke-width="0.3"><path d="
M 477.00 392.00 
L 484.00 392.00
C 485.41 390.79 488.03 390.61 490.00 390.00
C 495.08 385.53 492.27 372.99 495.93 366.93 C 499.58 360.86 499.46 350.35 502.98 343.98 C 506.49 337.60 511.30 333.39 515.75 327.75 C 520.20 322.12 525.77 317.41 529.77 311.77 C 533.77 306.13 541.69 302.31 545.00 299.00
C 550.94 286.00 557.19 272.31 563.00 259.00
C 557.24 265.04 548.29 272.76 541.25 280.25 C 534.20 287.74 526.71 295.77 519.77 303.77 C 512.83 311.77 505.74 319.94 499.30 328.30 C 492.86 336.66 487.18 347.34 483.33 357.33 C 479.48 367.32 475.15 382.89 477.00 392.00 Z"/>
</g>
<g fill="None" fill-opacity="0.0" stroke="#0083FE" stroke-opacity="0.95" stroke-width="0.3"><path d="
M 490.00 390.00 
C 508.71 384.16 515.17 365.83 522.70 349.69 C 530.22 333.56 537.56 315.26 545.00 299.00
C 541.69 302.31 533.77 306.13 529.77 311.77 C 525.77 317.41 520.20 322.12 515.75 327.75 C 511.30 333.39 506.49 337.60 502.98 343.98 C 499.46 350.35 499.58 360.86 495.93 366.93 C 492.27 372.99 495.08 385.53 490.00 390.00 Z"/>
</g>
<g fill="#000000" fill-opacity="0.00" stroke="None">
<path d="
M 0.00 139.00 
C 11.88 80.42 81.55 75.21 131.00 80.00
C 145.56 81.41 159.74 81.14 174.00 83.00
C 177.13 83.41 179.88 83.59 183.00 84.00
C 191.62 112.23 172.80 146.01 140.00 138.00
C 127.72 137.33 115.54 136.00 103.00 136.00
C 97.05 136.00 90.94 135.60 85.00 136.00
C 77.05 136.54 55.43 141.06 62.00 154.00
C 65.31 160.52 76.25 161.54 83.02 162.98 C 89.79 164.41 101.79 166.66 109.00 168.00
C 121.02 170.24 133.33 171.36 145.00 175.00
C 165.12 181.28 185.17 194.30 193.00 215.00
C 194.64 219.34 195.33 222.31 196.00 227.00
C 198.70 245.90 196.81 267.59 184.08 283.08 C 171.35 298.57 155.25 304.75 137.00 309.00
C 117.12 313.62 95.45 313.00 74.00 313.00
C 68.28 313.00 61.97 312.48 57.00 312.00
C 47.61 311.09 36.86 311.51 27.93 310.07 C 18.99 308.63 6.40 311.57 6.00 301.00 C 5.60 290.43 5.60 282.85 8.78 273.78 C 11.95 264.70 14.79 261.24 23.08 257.08 C 31.36 252.91 41.35 253.98 51.00 254.00 C 60.65 254.02 71.40 255.35 81.00 256.00
C 86.76 256.39 92.48 256.56 98.00 257.00
C 102.12 257.33 106.89 257.39 111.00 257.00
C 119.53 256.20 130.64 255.03 134.30 245.30 C 137.97 235.58 124.32 230.10 117.00 228.00
C 103.78 224.21 89.08 221.80 76.00 219.00
C 63.61 216.34 51.63 215.44 40.00 210.00
C 33.46 206.94 27.69 203.49 22.00 199.00
C 10.34 189.79 3.59 176.34 0.00 163.00
L 0.00 392.00
L 460.00 392.00
C 460.00 391.50 460.00 391.00 460.00 391.00
C 453.24 390.92 447.19 388.22 441.00 386.00
C 450.38 365.59 460.09 344.86 470.00 325.00
C 473.61 316.73 479.18 306.59 482.31 298.31 C 485.43 290.02 495.69 279.23 491.00 271.00
C 479.89 251.48 466.52 231.82 454.00 213.00
C 444.05 198.04 434.51 182.20 425.00 167.00
C 420.40 159.64 414.42 146.93 408.00 141.00
C 407.14 142.16 404.90 142.95 404.00 144.00
C 398.51 150.38 391.58 157.54 386.00 164.00
C 384.09 166.21 382.27 168.23 380.00 170.00
C 379.73 170.21 379.22 170.74 379.00 171.00
C 377.98 172.20 377.17 173.03 376.00 174.00
C 374.54 175.43 372.24 177.52 371.00 179.00
C 366.69 185.04 361.00 190.41 356.00 196.00
C 359.43 198.90 361.22 203.43 364.00 207.00
C 373.01 220.96 381.79 235.44 391.00 249.00
C 404.10 268.29 418.74 287.54 430.00 308.00
C 409.61 314.68 383.22 318.35 364.00 307.00
C 352.92 301.02 346.53 292.56 340.00 282.00
C 330.35 266.41 320.23 250.37 310.00 235.00
C 305.85 228.76 298.52 220.19 295.75 213.25 C 292.97 206.32 281.50 197.37 282.00 190.00
C 282.44 183.55 293.61 178.60 296.75 172.75 C 299.90 166.91 308.07 161.96 312.25 156.25 C 316.43 150.54 323.40 144.33 328.00 139.00
C 336.65 128.97 345.75 119.25 355.00 110.00
C 365.63 99.37 371.49 91.29 385.70 84.69 C 399.90 78.10 417.24 77.88 433.07 79.93 C 448.90 81.97 453.11 96.25 461.00 109.00
C 473.15 128.62 485.14 148.43 497.00 168.00
C 504.17 179.83 511.50 194.01 520.00 205.00
C 520.91 206.18 522.00 208.31 524.00 208.00
C 529.65 192.44 537.32 177.60 543.00 162.00
C 548.97 147.14 555.65 132.71 562.00 118.00
C 563.17 115.29 564.77 112.48 566.00 110.00
C 572.14 92.95 589.37 81.40 607.00 80.00
C 610.50 79.72 614.51 79.69 618.00 80.00
C 625.50 80.66 633.17 82.85 640.00 86.00
L 640.00 0.00
L 276.00 0.00
C 276.00 0.50 276.00 1.00 276.00 1.00
C 277.00 1.00 278.00 0.96 279.00 1.00
C 281.98 1.86 279.36 12.19 280.00 16.00 C 280.64 19.81 279.70 28.31 280.00 33.00 C 280.30 37.69 279.90 43.87 280.00 49.00 C 280.10 54.13 280.00 60.74 280.00 66.00
C 280.00 110.00 280.00 154.00 280.00 198.00
C 280.00 226.65 282.95 258.35 279.00 286.00
C 278.71 293.73 280.25 292.76 275.23 300.23 C 270.21 307.70 258.50 311.73 250.33 312.33 C 242.16 312.93 239.17 314.54 233.98 313.98 C 228.78 313.41 219.20 315.15 217.00 312.00
C 214.00 307.72 218.34 298.46 217.00 293.00 C 215.66 287.54 217.57 280.06 217.00 274.00 C 216.43 267.94 217.26 260.30 217.00 254.00 C 216.74 247.70 217.09 241.43 217.00 235.00 C 216.91 228.57 217.00 221.49 217.00 215.00
C 214.32 187.33 215.88 157.51 216.00 129.00 C 216.12 100.49 214.05 69.66 217.00 42.00
C 217.00 40.33 216.97 38.67 217.00 37.00
C 217.33 19.10 227.89 6.24 245.00 2.00
C 246.92 1.53 249.63 1.11 251.00 0.00
L 0.00 0.00
L 0.00 139.00 Z"/>
</g>
<g fill="#F26547" fill-opacity="0.75" stroke="None">
<path d="
M 245.00 2.00 
C 248.73 1.98 254.51 3.00 259.00 3.00
C 264.11 3.00 274.41 5.04 279.00 3.00
C 279.00 2.50 279.02 1.00 279.00 1.00
C 278.00 0.96 277.00 1.00 276.00 1.00
C 274.33 1.00 272.67 1.00 271.00 1.00
C 265.84 1.00 259.34 1.83 255.00 0.00
L 251.00 0.00
C 249.63 1.11 246.92 1.53 245.00 2.00 Z"/>
</g>
<g fill="#F1674A" fill-opacity="0.56" stroke="None">
<path d="
M 271.00 1.00 
C 270.85 0.95 271.00 0.00 271.00 0.00
L 255.00 0.00
C 259.34 1.83 265.84 1.00 271.00 1.00 Z"/>
</g>
<g fill="#F15B4A" fill-opacity="0.23" stroke="None">
<path d="
M 271.00 1.00 
C 272.67 1.00 274.33 1.00 276.00 1.00
C 276.00 1.00 276.00 0.50 276.00 0.00
L 271.00 0.00
C 271.00 0.00 270.85 0.95 271.00 1.00 Z"/>
</g>
<g fill="#E9354A" fill-opacity="0.17" stroke="None">
<path d="
M 279.00 3.00 
C 279.00 10.33 279.00 17.67 279.00 25.00
C 279.00 38.67 279.00 52.33 279.00 66.00
C 279.27 65.75 280.00 66.00 280.00 66.00
C 280.00 60.74 280.10 54.13 280.00 49.00 C 279.90 43.87 280.30 37.69 280.00 33.00 C 279.70 28.31 280.64 19.81 280.00 16.00 C 279.36 12.19 281.98 1.86 279.00 1.00
C 279.02 1.00 279.00 2.50 279.00 3.00 Z"/>
</g>
<g fill="#F86837" fill-opacity="0.98" stroke="None">
<path d="
M 217.00 37.00 
C 217.76 49.90 218.00 64.38 218.00 78.00
C 219.87 71.73 229.45 67.53 232.77 60.77 C 236.09 54.01 242.83 50.16 245.26 43.25 C 247.70 36.34 253.35 31.46 255.39 25.25 C 257.44 19.03 265.10 11.98 265.00 4.00
C 263.12 3.53 260.07 5.06 259.00 3.00
C 254.51 3.00 248.73 1.98 245.00 2.00
C 227.89 6.24 217.33 19.10 217.00 37.00 Z"/>
</g>
<g fill="#F5594E" fill-opacity="1.00" stroke="None">
<path d="
M 218.00 78.00 
C 218.00 79.33 218.00 80.67 218.00 82.00
C 218.00 90.00 218.00 98.00 218.00 106.00
C 222.37 105.03 226.74 100.68 228.00 96.00
C 240.92 91.09 250.31 77.02 257.92 64.92 C 265.53 52.82 274.26 38.75 279.00 25.00
C 279.00 17.67 279.00 10.33 279.00 3.00
C 274.41 5.04 264.11 3.00 259.00 3.00
C 260.07 5.06 263.12 3.53 265.00 4.00
C 265.10 11.98 257.44 19.03 255.39 25.25 C 253.35 31.46 247.70 36.34 245.26 43.25 C 242.83 50.16 236.09 54.01 232.77 60.77 C 229.45 67.53 219.87 71.73 218.00 78.00 Z"/>
</g>
<g fill="#F75263" fill-opacity="1.00" stroke="None">
<path d="
M 218.00 106.00 
C 218.00 116.00 218.00 126.00 218.00 136.00
C 224.83 134.96 231.77 127.96 226.00 124.00
C 232.78 119.62 238.74 106.91 246.00 110.00
C 245.94 104.29 252.76 102.25 254.00 97.00
C 259.48 100.46 264.87 91.70 266.78 85.78 C 268.69 79.85 277.09 75.06 279.00 69.00
C 279.00 68.00 279.00 67.00 279.00 66.00
C 279.00 52.33 279.00 38.67 279.00 25.00
C 274.26 38.75 265.53 52.82 257.92 64.92 C 250.31 77.02 240.92 91.09 228.00 96.00
C 226.74 100.68 222.37 105.03 218.00 106.00 Z"/>
</g>
<g fill="#FC6A3D" fill-opacity="0.82" stroke="None">
<path d="
M 217.00 42.00 
C 217.00 55.33 217.00 68.67 217.00 82.00
C 217.00 81.96 218.00 82.00 218.00 82.00
C 218.00 80.67 218.00 79.33 218.00 78.00
C 218.00 64.38 217.76 49.90 217.00 37.00
C 216.97 38.67 217.00 40.33 217.00 42.00 Z"/>
</g>
<g fill="#FFFFFF" fill-opacity="0.01" stroke="None">
<path d="
M 217.00 215.00 
C 217.00 213.67 217.00 212.33 217.00 211.00
C 217.00 189.67 217.00 168.33 217.00 147.00
C 217.00 125.33 217.00 103.67 217.00 82.00
C 217.00 68.67 217.00 55.33 217.00 42.00
C 214.05 69.66 216.12 100.49 216.00 129.00 C 215.88 157.51 214.32 187.33 217.00 215.00 Z"/>
</g>
<g fill="#F40F6B" fill-opacity="0.18" stroke="None">
<path d="
M 279.00 69.00 
C 279.00 89.67 279.00 110.33 279.00 131.00
C 279.00 148.33 279.00 165.67 279.00 183.00
C 279.00 188.00 279.00 193.00 279.00 198.00
C 279.00 197.96 280.00 198.00 280.00 198.00
C 280.00 154.00 280.00 110.00 280.00 66.00
C 280.00 66.00 279.27 65.75 279.00 66.00
C 279.00 67.00 279.00 68.00 279.00 69.00 Z"/>
</g>
<g fill="#F9537B" fill-opacity="1.00" stroke="None">
<path d="
M 218.00 136.00 
C 218.00 139.67 218.00 143.33 218.00 147.00
C 218.00 150.67 218.00 154.33 218.00 158.00
C 222.07 164.25 232.71 156.02 237.00 156.00
C 237.07 153.34 236.71 153.18 239.00 150.00
C 244.25 153.83 248.75 145.54 251.00 141.00
C 256.16 141.83 260.46 136.50 263.00 133.00
C 268.59 133.57 274.07 132.94 279.00 131.00
C 279.00 110.33 279.00 89.67 279.00 69.00
C 277.09 75.06 268.69 79.85 266.78 85.78 C 264.87 91.70 259.48 100.46 254.00 97.00
C 252.76 102.25 245.94 104.29 246.00 110.00
C 238.74 106.91 232.78 119.62 226.00 124.00
C 231.77 127.96 224.83 134.96 218.00 136.00 Z"/>
</g>
<g fill="#C440E1" fill-opacity="0.98" stroke="None">
<path d="
M 355.00 110.00 
C 358.48 109.03 361.12 117.25 366.00 114.00
C 365.97 117.79 370.59 119.78 374.00 118.00
C 376.51 123.48 386.37 124.68 392.00 125.00
C 391.72 127.96 387.80 127.91 388.00 131.00
C 391.54 131.32 395.59 133.27 399.00 131.00
C 400.40 135.55 407.19 135.92 411.00 134.00
C 413.06 133.36 416.38 134.38 414.00 131.00
C 410.81 132.96 406.79 129.75 407.00 126.00
C 413.57 125.86 417.76 120.76 425.00 122.00
C 421.83 112.96 433.63 113.84 435.00 108.00
C 443.63 107.70 451.54 108.90 461.00 109.00
C 453.11 96.25 448.90 81.97 433.07 79.93 C 417.24 77.88 399.90 78.10 385.70 84.69 C 371.49 91.29 365.63 99.37 355.00 110.00 Z"/>
</g>
<g fill="#FF9337" fill-opacity="0.98" stroke="None">
<path d="
M 0.00 139.00 
L 0.00 143.00
C 1.61 147.26 1.70 154.81 0.00 159.00
L 0.00 163.00
C 3.59 176.34 10.34 189.79 22.00 199.00
C 20.37 197.20 19.88 193.74 17.00 193.00
C 20.63 191.46 18.07 191.75 19.00 189.00
C 14.90 191.10 15.44 186.71 14.00 184.00
C 20.62 181.68 29.63 181.80 33.00 175.00
C 39.64 176.37 44.85 174.71 50.00 170.00
C 48.33 167.71 46.24 164.46 42.00 164.00
C 43.35 160.92 42.81 159.62 43.00 157.00
C 49.48 159.13 56.62 156.94 62.00 154.00
C 55.43 141.06 77.05 136.54 85.00 136.00
C 88.23 135.42 92.12 134.92 96.00 135.00
C 96.05 134.98 97.18 132.05 98.00 132.00
C 94.99 132.21 92.23 133.56 89.00 133.00
C 89.51 130.81 86.96 128.19 92.00 128.00
C 91.24 126.19 86.91 126.55 89.00 124.00
C 87.48 122.23 92.17 120.01 94.00 120.00
C 90.93 115.08 97.32 111.32 100.80 107.75 C 104.28 104.18 110.21 100.26 115.00 97.00
C 112.13 94.94 118.14 91.60 120.75 88.75 C 123.37 85.91 126.45 79.86 131.00 80.00
C 81.55 75.21 11.88 80.42 0.00 139.00 Z"/>
</g>
<g fill="#FE7C3A" fill-opacity="0.99" stroke="None">
<path d="
M 96.00 135.00 
C 98.41 135.05 101.30 135.84 103.00 136.00
C 115.54 136.00 127.72 137.33 140.00 138.00
C 138.38 137.07 145.96 132.55 148.23 130.23 C 150.51 127.91 151.32 122.74 149.00 120.00
C 157.04 118.86 159.86 110.05 163.00 106.00
C 156.68 100.40 165.34 96.30 170.00 93.00
C 165.76 88.47 176.66 87.31 174.00 83.00
C 159.74 81.14 145.56 81.41 131.00 80.00
C 126.45 79.86 123.37 85.91 120.75 88.75 C 118.14 91.60 112.13 94.94 115.00 97.00
C 110.21 100.26 104.28 104.18 100.80 107.75 C 97.32 111.32 90.93 115.08 94.00 120.00
C 92.17 120.01 87.48 122.23 89.00 124.00
C 86.91 126.55 91.24 126.19 92.00 128.00
C 86.96 128.19 89.51 130.81 89.00 133.00
C 92.23 133.56 94.99 132.21 98.00 132.00
C 97.18 132.05 96.05 134.98 96.00 135.00 Z"/>
</g>
<g fill="#4C71FF" fill-opacity="0.96" stroke="None">
<path d="
M 566.00 110.00 
C 565.05 112.64 564.00 115.35 563.00 118.00
C 563.25 119.10 563.39 119.99 564.00 121.00
C 571.34 119.75 578.70 117.94 585.75 111.75 C 592.80 105.57 602.56 104.61 611.07 102.07 C 619.58 99.54 628.06 92.27 637.00 94.00
C 637.69 92.49 639.28 90.44 640.00 89.00
L 640.00 86.00
C 633.17 82.85 625.50 80.66 618.00 80.00
C 615.26 80.02 609.69 80.05 607.00 80.00
C 589.37 81.40 572.14 92.95 566.00 110.00 Z"/>
</g>
<g fill="#0034FF" fill-opacity="0.38" stroke="None">
<path d="
M 618.00 80.00 
C 614.51 79.69 610.50 79.72 607.00 80.00
C 609.69 80.05 615.26 80.02 618.00 80.00 Z"/>
</g>
<g fill="#FD6568" fill-opacity="0.85" stroke="None">
<path d="
M 217.00 147.00 
C 217.00 146.96 218.00 147.00 218.00 147.00
C 218.00 143.33 218.00 139.67 218.00 136.00
C 218.00 126.00 218.00 116.00 218.00 106.00
C 218.00 98.00 218.00 90.00 218.00 82.00
C 218.00 82.00 217.00 81.96 217.00 82.00
C 217.00 103.67 217.00 125.33 217.00 147.00 Z"/>
</g>
<g fill="#FE6C46" fill-opacity="0.96" stroke="None">
<path d="
M 140.00 138.00 
C 172.80 146.01 191.62 112.23 183.00 84.00
C 179.88 83.59 177.13 83.41 174.00 83.00
C 176.66 87.31 165.76 88.47 170.00 93.00
C 165.34 96.30 156.68 100.40 163.00 106.00
C 159.86 110.05 157.04 118.86 149.00 120.00
C 151.32 122.74 150.51 127.91 148.23 130.23 C 145.96 132.55 138.38 137.07 140.00 138.00 Z"/>
</g>
<g fill="#000000" fill-opacity="0.00" stroke="None">
<path d="
M 637.00 94.00 
C 630.09 109.12 623.60 124.71 617.00 140.00
C 609.29 157.86 600.62 175.13 593.00 193.00
C 583.53 215.20 572.54 237.16 563.00 259.00
C 557.19 272.31 550.94 286.00 545.00 299.00
C 537.56 315.26 530.22 333.56 522.70 349.69 C 515.17 365.83 508.71 384.16 490.00 390.00
C 488.03 390.61 485.41 390.79 484.00 392.00
L 640.00 392.00
L 640.00 89.00
C 639.28 90.44 637.69 92.49 637.00 94.00 Z"/>
</g>
<g fill="#6485FE" fill-opacity="0.98" stroke="None">
<path d="
M 563.00 118.00 
C 562.94 118.16 562.00 118.00 562.00 118.00
C 555.65 132.71 548.97 147.14 543.00 162.00
C 549.98 151.82 566.32 153.03 577.00 152.00
C 588.05 150.93 609.17 149.53 617.00 140.00
C 623.60 124.71 630.09 109.12 637.00 94.00
C 628.06 92.27 619.58 99.54 611.07 102.07 C 602.56 104.61 592.80 105.57 585.75 111.75 C 578.70 117.94 571.34 119.75 564.00 121.00
C 563.39 119.99 563.25 119.10 563.00 118.00 Z"/>
</g>
<g fill="#BF5CF2" fill-opacity="0.98" stroke="None">
<path d="
M 411.00 134.00 
C 410.59 135.56 411.46 136.69 412.00 138.00
C 408.62 136.87 403.30 141.84 404.00 144.00
C 405.53 140.88 407.56 140.59 408.00 141.00
C 414.42 146.93 420.40 159.64 425.00 167.00
C 435.75 173.95 457.31 167.94 470.00 166.00
C 478.78 164.66 490.35 162.77 497.00 168.00
C 485.14 148.43 473.15 128.62 461.00 109.00
C 451.54 108.90 443.63 107.70 435.00 108.00
C 433.63 113.84 421.83 112.96 425.00 122.00
C 417.76 120.76 413.57 125.86 407.00 126.00
C 406.79 129.75 410.81 132.96 414.00 131.00
C 416.38 134.38 413.06 133.36 411.00 134.00 Z"/>
</g>
<g fill="#DF59D4" fill-opacity="0.99" stroke="None">
<path d="
M 355.00 110.00 
C 345.75 119.25 336.65 128.97 328.00 139.00
C 327.34 138.98 331.93 145.30 329.00 146.00
C 336.27 142.55 340.33 149.92 347.00 146.00
C 347.31 153.13 338.65 153.56 336.00 158.00
C 338.74 158.29 344.11 156.65 344.00 161.00
C 335.08 165.02 346.49 176.82 342.00 184.00
C 348.64 183.05 357.93 181.33 364.07 180.07 C 370.22 178.82 374.78 170.67 379.00 171.00
C 379.22 170.74 379.73 170.21 380.00 170.00
C 379.76 166.94 384.76 164.96 386.00 164.00
C 391.58 157.54 398.51 150.38 404.00 144.00
C 403.30 141.84 408.62 136.87 412.00 138.00
C 411.46 136.69 410.59 135.56 411.00 134.00
C 407.19 135.92 400.40 135.55 399.00 131.00
C 395.59 133.27 391.54 131.32 388.00 131.00
C 387.80 127.91 391.72 127.96 392.00 125.00
C 386.37 124.68 376.51 123.48 374.00 118.00
C 370.59 119.78 365.97 117.79 366.00 114.00
C 361.12 117.25 358.48 109.03 355.00 110.00 Z"/>
</g>
<g fill="#D6DDFF" fill-opacity="0.18" stroke="None">
<path d="
M 562.00 118.00 
C 562.00 118.00 562.94 118.16 563.00 118.00
C 564.00 115.35 565.05 112.64 566.00 110.00
C 564.77 112.48 563.17 115.29 562.00 118.00 Z"/>
</g>
<g fill="#FD629C" fill-opacity="1.00" stroke="None">
<path d="
M 218.00 158.00 
C 218.00 175.00 218.00 192.00 218.00 209.00
C 223.78 195.38 249.16 197.73 261.00 196.00
C 267.84 195.00 277.36 190.93 279.00 183.00
C 279.00 165.67 279.00 148.33 279.00 131.00
C 274.07 132.94 268.59 133.57 263.00 133.00
C 260.46 136.50 256.16 141.83 251.00 141.00
C 248.75 145.54 244.25 153.83 239.00 150.00
C 236.71 153.18 237.07 153.34 237.00 156.00
C 232.71 156.02 222.07 164.25 218.00 158.00 Z"/>
</g>
<g fill="#FF6D1B" fill-opacity="0.35" stroke="None">
<path d="
M 85.00 136.00 
C 90.94 135.60 97.05 136.00 103.00 136.00
C 101.30 135.84 98.41 135.05 96.00 135.00
C 92.12 134.92 88.23 135.42 85.00 136.00 Z"/>
</g>
<g fill="#F062C1" fill-opacity="0.98" stroke="None">
<path d="
M 282.00 190.00 
C 296.72 192.50 311.61 188.01 326.00 186.00
C 331.40 185.25 336.65 184.76 342.00 184.00
C 346.49 176.82 335.08 165.02 344.00 161.00
C 344.11 156.65 338.74 158.29 336.00 158.00
C 338.65 153.56 347.31 153.13 347.00 146.00
C 340.33 149.92 336.27 142.55 329.00 146.00
C 331.93 145.30 327.34 138.98 328.00 139.00
C 323.40 144.33 316.43 150.54 312.25 156.25 C 308.07 161.96 299.90 166.91 296.75 172.75 C 293.61 178.60 282.44 183.55 282.00 190.00 Z"/>
</g>
<g fill="#BA06DA" fill-opacity="0.47" stroke="None">
<path d="
M 404.00 144.00 
C 404.90 142.95 407.14 142.16 408.00 141.00
C 407.56 140.59 405.53 140.88 404.00 144.00 Z"/>
</g>
<g fill="#1F46FD" fill-opacity="0.98" stroke="None">
<path d="
M 577.00 152.00 
C 577.95 152.23 579.04 151.82 580.00 152.00
C 577.48 157.11 574.53 161.78 571.25 166.25 C 567.96 170.71 567.65 177.66 563.70 181.70 C 559.74 185.74 560.28 193.42 556.23 197.23 C 552.18 201.04 549.74 208.03 545.00 208.00
C 546.09 215.49 541.40 223.01 537.08 228.08 C 532.77 233.15 529.82 241.49 525.00 241.00
C 519.10 256.52 507.68 270.69 498.70 284.70 C 489.71 298.70 479.22 313.93 470.00 325.00
C 460.09 344.86 450.38 365.59 441.00 386.00
C 447.19 388.22 453.24 390.92 460.00 391.00
C 461.00 391.05 462.00 390.96 463.00 391.00
C 464.97 376.77 468.31 359.24 474.77 346.77 C 481.23 334.30 489.59 324.13 497.25 313.25 C 504.91 302.36 515.11 292.75 522.75 282.75 C 530.39 272.75 536.66 260.89 545.31 251.31 C 553.95 241.72 554.24 225.24 564.31 218.30 C 574.37 211.37 583.33 200.90 593.00 193.00
C 600.62 175.13 609.29 157.86 617.00 140.00
C 609.17 149.53 588.05 150.93 577.00 152.00 Z"/>
</g>
<g fill="#FF9931" fill-opacity="0.65" stroke="None">
<path d="
M 0.00 159.00 
C 1.70 154.81 1.61 147.26 0.00 143.00
L 0.00 159.00 Z"/>
</g>
<g fill="#FE769B" fill-opacity="0.87" stroke="None">
<path d="
M 217.00 211.00 
C 217.13 210.78 218.00 211.00 218.00 211.00
C 218.00 210.50 218.00 209.50 218.00 209.00
C 218.00 192.00 218.00 175.00 218.00 158.00
C 218.00 154.33 218.00 150.67 218.00 147.00
C 218.00 147.00 217.00 146.96 217.00 147.00
C 217.00 168.33 217.00 189.67 217.00 211.00 Z"/>
</g>
<g fill="#3130FD" fill-opacity="0.98" stroke="None">
<path d="
M 543.00 162.00 
C 537.32 177.60 529.65 192.44 524.00 208.00
C 522.00 208.31 520.91 206.18 520.00 205.00
C 520.56 211.57 513.82 222.10 513.01 229.01 C 512.20 235.92 502.82 242.86 502.68 250.68 C 502.54 258.49 491.49 264.08 491.00 271.00
C 495.69 279.23 485.43 290.02 482.31 298.31 C 479.18 306.59 473.61 316.73 470.00 325.00
C 479.22 313.93 489.71 298.70 498.70 284.70 C 507.68 270.69 519.10 256.52 525.00 241.00
C 529.82 241.49 532.77 233.15 537.08 228.08 C 541.40 223.01 546.09 215.49 545.00 208.00
C 549.74 208.03 552.18 201.04 556.23 197.23 C 560.28 193.42 559.74 185.74 563.70 181.70 C 567.65 177.66 567.96 170.71 571.25 166.25 C 574.53 161.78 577.48 157.11 580.00 152.00
C 579.04 151.82 577.95 152.23 577.00 152.00
C 566.32 153.03 549.98 151.82 543.00 162.00 Z"/>
</g>
<g fill="#FF9262" fill-opacity="0.98" stroke="None">
<path d="
M 22.00 199.00 
C 27.69 203.49 33.46 206.94 40.00 210.00
C 42.55 210.54 47.45 211.13 51.00 212.00
C 55.43 204.06 61.46 195.28 71.07 195.07 C 80.69 194.86 82.76 182.93 94.00 183.00
C 87.94 180.78 98.33 178.72 101.01 177.01 C 103.69 175.30 109.55 170.33 109.00 168.00
C 101.79 166.66 89.79 164.41 83.02 162.98 C 76.25 161.54 65.31 160.52 62.00 154.00
C 56.62 156.94 49.48 159.13 43.00 157.00
C 42.81 159.62 43.35 160.92 42.00 164.00
C 46.24 164.46 48.33 167.71 50.00 170.00
C 44.85 174.71 39.64 176.37 33.00 175.00
C 29.63 181.80 20.62 181.68 14.00 184.00
C 15.44 186.71 14.90 191.10 19.00 189.00
C 18.07 191.75 20.63 191.46 17.00 193.00
C 19.88 193.74 20.37 197.20 22.00 199.00 Z"/>
</g>
<g fill="#C60BCC" fill-opacity="0.44" stroke="None">
<path d="
M 380.00 170.00 
C 382.27 168.23 384.09 166.21 386.00 164.00
C 384.76 164.96 379.76 166.94 380.00 170.00 Z"/>
</g>
<g fill="#6711F8" fill-opacity="0.98" stroke="None">
<path d="
M 470.00 166.00 
C 465.44 168.97 463.91 183.33 462.07 189.07 C 460.24 194.82 453.61 207.34 454.00 213.00
C 466.52 231.82 479.89 251.48 491.00 271.00
C 491.49 264.08 502.54 258.49 502.68 250.68 C 502.82 242.86 512.20 235.92 513.01 229.01 C 513.82 222.10 520.56 211.57 520.00 205.00
C 511.50 194.01 504.17 179.83 497.00 168.00
C 490.35 162.77 478.78 164.66 470.00 166.00 Z"/>
</g>
<g fill="#9602EF" fill-opacity="0.96" stroke="None">
<path d="
M 425.00 167.00 
C 434.51 182.20 444.05 198.04 454.00 213.00
C 453.61 207.34 460.24 194.82 462.07 189.07 C 463.91 183.33 465.44 168.97 470.00 166.00
C 457.31 167.94 435.75 173.95 425.00 167.00 Z"/>
</g>
<g fill="#FF8A78" fill-opacity="0.99" stroke="None">
<path d="
M 51.00 212.00 
C 60.79 214.39 72.32 216.06 82.00 217.00
C 91.39 217.91 102.02 217.25 111.00 216.00
C 119.02 211.19 123.91 199.36 130.00 193.00
C 126.79 194.51 124.50 190.65 121.00 193.00
C 127.47 184.89 142.05 185.32 145.00 175.00
C 133.33 171.36 121.02 170.24 109.00 168.00
C 109.55 170.33 103.69 175.30 101.01 177.01 C 98.33 178.72 87.94 180.78 94.00 183.00
C 82.76 182.93 80.69 194.86 71.07 195.07 C 61.46 195.28 55.43 204.06 51.00 212.00 Z"/>
</g>
<g fill="#DF02BC" fill-opacity="0.98" stroke="None">
<path d="
M 342.00 184.00 
C 336.65 184.76 331.40 185.25 326.00 186.00
C 321.16 193.45 324.79 204.12 318.75 210.75 C 312.71 217.39 310.15 227.59 310.00 235.00
C 320.23 250.37 330.35 266.41 340.00 282.00
C 340.25 276.63 345.35 270.04 345.78 263.78 C 346.20 257.51 350.67 250.77 351.33 244.33 C 351.99 237.89 354.53 230.89 356.93 224.93 C 359.33 218.96 360.88 212.13 364.00 207.00
C 361.22 203.43 359.43 198.90 356.00 196.00
C 361.00 190.41 366.69 185.04 371.00 179.00
C 372.46 176.96 374.15 175.54 376.00 174.00
C 377.17 173.03 377.98 172.20 379.00 171.00
C 374.78 170.67 370.22 178.82 364.07 180.07 C 357.93 181.33 348.64 183.05 342.00 184.00 Z"/>
</g>
<g fill="#CB00C9" fill-opacity="0.36" stroke="None">
<path d="
M 371.00 179.00 
C 372.24 177.52 374.54 175.43 376.00 174.00
C 374.15 175.54 372.46 176.96 371.00 179.00 Z"/>
</g>
<g fill="#FF7B87" fill-opacity="0.98" stroke="None">
<path d="
M 111.00 216.00 
C 118.03 215.02 124.90 214.86 132.00 214.00
C 141.13 212.90 153.63 209.43 163.02 209.02 C 172.41 208.62 186.48 207.74 193.00 215.00
C 185.17 194.30 165.12 181.28 145.00 175.00
C 142.05 185.32 127.47 184.89 121.00 193.00
C 124.50 190.65 126.79 194.51 130.00 193.00
C 123.91 199.36 119.02 211.19 111.00 216.00 Z"/>
</g>
<g fill="#FC018F" fill-opacity="0.99" stroke="None">
<path d="
M 261.00 196.00 
C 265.23 198.57 254.23 202.53 255.23 208.23 C 256.23 213.93 247.78 213.54 247.25 221.25 C 246.71 228.96 237.69 239.40 233.25 246.25 C 228.81 253.10 227.65 252.70 226.08 259.08 C 224.50 265.46 219.89 266.88 218.00 272.00
C 218.00 285.17 218.83 299.66 217.00 312.00
C 219.20 315.15 228.78 313.41 233.98 313.98 C 239.17 314.54 242.16 312.93 250.33 312.33 C 258.50 311.73 270.21 307.70 275.23 300.23 C 280.25 292.76 278.71 293.73 279.00 286.00
C 280.12 256.76 279.00 227.26 279.00 198.00
C 279.00 193.00 279.00 188.00 279.00 183.00
C 277.36 190.93 267.84 195.00 261.00 196.00 Z"/>
</g>
<g fill="#EF029E" fill-opacity="0.97" stroke="None">
<path d="
M 282.00 190.00 
C 281.50 197.37 292.97 206.32 295.75 213.25 C 298.52 220.19 305.85 228.76 310.00 235.00
C 310.15 227.59 312.71 217.39 318.75 210.75 C 324.79 204.12 321.16 193.45 326.00 186.00
C 311.61 188.01 296.72 192.50 282.00 190.00 Z"/>
</g>
<g fill="#165AFE" fill-opacity="0.98" stroke="None">
<path d="
M 460.00 391.00 
C 460.00 391.00 460.00 391.50 460.00 392.00
L 477.00 392.00
C 475.15 382.89 479.48 367.32 483.33 357.33 C 487.18 347.34 492.86 336.66 499.30 328.30 C 505.74 319.94 512.83 311.77 519.77 303.77 C 526.71 295.77 534.20 287.74 541.25 280.25 C 548.29 272.76 557.24 265.04 563.00 259.00
C 572.54 237.16 583.53 215.20 593.00 193.00
C 583.33 200.90 574.37 211.37 564.31 218.30 C 554.24 225.24 553.95 241.72 545.31 251.31 C 536.66 260.89 530.39 272.75 522.75 282.75 C 515.11 292.75 504.91 302.36 497.25 313.25 C 489.59 324.13 481.23 334.30 474.77 346.77 C 468.31 359.24 464.97 376.77 463.00 391.00
C 462.00 390.96 461.00 391.05 460.00 391.00 Z"/>
</g>
<g fill="#FE0072" fill-opacity="1.00" stroke="None">
<path d="
M 218.00 209.00 
C 218.00 209.50 218.00 210.50 218.00 211.00
C 218.00 231.33 218.00 251.67 218.00 272.00
C 219.89 266.88 224.50 265.46 226.08 259.08 C 227.65 252.70 228.81 253.10 233.25 246.25 C 237.69 239.40 246.71 228.96 247.25 221.25 C 247.78 213.54 256.23 213.93 255.23 208.23 C 254.23 202.53 265.23 198.57 261.00 196.00
C 249.16 197.73 223.78 195.38 218.00 209.00 Z"/>
</g>
<g fill="#F8019A" fill-opacity="0.17" stroke="None">
<path d="
M 279.00 286.00 
C 282.95 258.35 280.00 226.65 280.00 198.00
C 280.00 198.00 279.00 197.96 279.00 198.00
C 279.00 227.26 280.12 256.76 279.00 286.00 Z"/>
</g>
<g fill="#C801D5" fill-opacity="0.98" stroke="None">
<path d="
M 340.00 282.00 
C 346.53 292.56 352.92 301.02 364.00 307.00
C 368.34 305.81 367.39 295.75 370.78 292.78 C 374.16 289.81 375.58 282.96 377.97 278.97 C 380.37 274.99 382.82 268.78 384.31 264.31 C 385.79 259.83 390.76 253.45 391.00 249.00
C 381.79 235.44 373.01 220.96 364.00 207.00
C 360.88 212.13 359.33 218.96 356.93 224.93 C 354.53 230.89 351.99 237.89 351.33 244.33 C 350.67 250.77 346.20 257.51 345.78 263.78 C 345.35 270.04 340.25 276.63 340.00 282.00 Z"/>
</g>
<g fill="#FF5021" fill-opacity="0.80" stroke="None">
<path d="
M 40.00 210.00 
C 51.63 215.44 63.61 216.34 76.00 219.00
C 77.38 218.79 79.56 217.19 82.00 217.00
C 72.32 216.06 60.79 214.39 51.00 212.00
C 47.45 211.13 42.55 210.54 40.00 210.00 Z"/>
</g>
<g fill="#FE104C" fill-opacity="0.99" stroke="None">
<path d="
M 132.00 214.00 
C 126.41 216.73 122.28 226.61 117.00 228.00
C 124.32 230.10 137.97 235.58 134.30 245.30 C 130.64 255.03 119.53 256.20 111.00 257.00
C 109.26 257.40 107.33 257.98 105.00 258.00
C 96.77 275.16 86.03 292.41 84.00 312.00
C 80.83 312.61 76.35 310.75 74.00 313.00
C 95.45 313.00 117.12 313.62 137.00 309.00
C 134.42 307.39 139.06 295.55 140.92 291.92 C 142.79 288.30 147.17 280.90 148.92 275.92 C 150.68 270.95 154.82 265.58 158.77 261.77 C 162.71 257.96 167.39 253.93 170.75 249.75 C 174.12 245.57 180.23 242.17 182.77 237.77 C 185.31 233.37 194.59 231.56 196.00 227.00
C 195.33 222.31 194.64 219.34 193.00 215.00
C 186.48 207.74 172.41 208.62 163.02 209.02 C 153.63 209.43 141.13 212.90 132.00 214.00 Z"/>
</g>
<g fill="#FE0278" fill-opacity="0.80" stroke="None">
<path d="
M 217.00 215.00 
C 217.00 221.49 216.91 228.57 217.00 235.00 C 217.09 241.43 216.74 247.70 217.00 254.00 C 217.26 260.30 216.43 267.94 217.00 274.00 C 217.57 280.06 215.66 287.54 217.00 293.00 C 218.34 298.46 214.00 307.72 217.00 312.00
C 218.83 299.66 218.00 285.17 218.00 272.00
C 218.00 251.67 218.00 231.33 218.00 211.00
C 218.00 211.00 217.13 210.78 217.00 211.00
C 217.00 212.33 217.00 213.67 217.00 215.00 Z"/>
</g>
<g fill="#FF3130" fill-opacity="0.93" stroke="None">
<path d="
M 111.00 216.00 
C 102.02 217.25 91.39 217.91 82.00 217.00
C 79.56 217.19 77.38 218.79 76.00 219.00
C 89.08 221.80 103.78 224.21 117.00 228.00
C 122.28 226.61 126.41 216.73 132.00 214.00
C 124.90 214.86 118.03 215.02 111.00 216.00 Z"/>
</g>
<g fill="#FE0065" fill-opacity="0.97" stroke="None">
<path d="
M 137.00 309.00 
C 155.25 304.75 171.35 298.57 184.08 283.08 C 196.81 267.59 198.70 245.90 196.00 227.00
C 194.59 231.56 185.31 233.37 182.77 237.77 C 180.23 242.17 174.12 245.57 170.75 249.75 C 167.39 253.93 162.71 257.96 158.77 261.77 C 154.82 265.58 150.68 270.95 148.92 275.92 C 147.17 280.90 142.79 288.30 140.92 291.92 C 139.06 295.55 134.42 307.39 137.00 309.00 Z"/>
</g>
<g fill="#A304E8" fill-opacity="0.96" stroke="None">
<path d="
M 364.00 307.00 
C 383.22 318.35 409.61 314.68 430.00 308.00
C 418.74 287.54 404.10 268.29 391.00 249.00
C 390.76 253.45 385.79 259.83 384.31 264.31 C 382.82 268.78 380.37 274.99 377.97 278.97 C 375.58 282.96 374.16 289.81 370.78 292.78 C 367.39 295.75 368.34 305.81 364.00 307.00 Z"/>
</g>
<g fill="#FF3F1E" fill-opacity="0.98" stroke="None">
<path d="
M 57.00 312.00 
C 60.68 310.38 61.80 298.02 64.92 293.92 C 68.03 289.81 68.58 278.90 72.92 274.92 C 77.25 270.93 75.63 259.06 81.00 256.00
C 71.40 255.35 60.65 254.02 51.00 254.00 C 41.35 253.98 31.36 252.91 23.08 257.08 C 14.79 261.24 11.95 264.70 8.78 273.78 C 5.60 282.85 5.60 290.43 6.00 301.00 C 6.40 311.57 18.99 308.63 27.93 310.07 C 36.86 311.51 47.61 311.09 57.00 312.00 Z"/>
</g>
<g fill="#FF2534" fill-opacity="0.98" stroke="None">
<path d="
M 57.00 312.00 
C 61.97 312.48 68.28 313.00 74.00 313.00
C 76.35 310.75 80.83 312.61 84.00 312.00
C 86.03 292.41 96.77 275.16 105.00 258.00
C 102.35 258.03 99.97 257.38 98.00 257.00
C 92.48 256.56 86.76 256.39 81.00 256.00
C 75.63 259.06 77.25 270.93 72.92 274.92 C 68.58 278.90 68.03 289.81 64.92 293.92 C 61.80 298.02 60.68 310.38 57.00 312.00 Z"/>
</g>
<g fill="#FE1E3B" fill-opacity="0.83" stroke="None">
<path d="
M 105.00 258.00 
C 107.33 257.98 109.26 257.40 111.00 257.00
C 106.89 257.39 102.12 257.33 98.00 257.00
C 99.97 257.38 102.35 258.03 105.00 258.00 Z"/>
</g>
<g fill="#096EFE" fill-opacity="0.98" stroke="None">
<path d="
M 477.00 392.00 
L 484.00 392.00
C 485.41 390.79 488.03 390.61 490.00 390.00
C 495.08 385.53 492.27 372.99 495.93 366.93 C 499.58 360.86 499.46 350.35 502.98 343.98 C 506.49 337.60 511.30 333.39 515.75 327.75 C 520.20 322.12 525.77 317.41 529.77 311.77 C 533.77 306.13 541.69 302.31 545.00 299.00
C 550.94 286.00 557.19 272.31 563.00 259.00
C 557.24 265.04 548.29 272.76 541.25 280.25 C 534.20 287.74 526.71 295.77 519.77 303.77 C 512.83 311.77 505.74 319.94 499.30 328.30 C 492.86 336.66 487.18 347.34 483.33 357.33 C 479.48 367.32 475.15 382.89 477.00 392.00 Z"/>
</g>
<g fill="#0083FE" fill-opacity="0.95" stroke="None">
<path d="
M 490.00 390.00 
C 508.71 384.16 515.17 365.83 522.70 349.69 C 530.22 333.56 537.56 315.26 545.00 299.00
C 541.69 302.31 533.77 306.13 529.77 311.77 C 525.77 317.41 520.20 322.12 515.75 327.75 C 511.30 333.39 506.49 337.60 502.98 343.98 C 499.46 350.35 499.58 360.86 495.93 366.93 C 492.27 372.99 495.08 385.53 490.00 390.00 Z"/>
</g>
</svg>