<?xml version="1.0"?>
<svg width="301.13" height="184.342" xmlns="http://www.w3.org/2000/svg" xmlns:svg="http://www.w3.org/2000/svg" xmlns:xlink="http://www.w3.org/1999/xlink" enable-background="new 0 0 301.13 184.342" version="1.1" xml:space="preserve">
 <g class="layer">
  <title>Layer 1</title>
  <g id="svg_1">
   <path d="m50.6,37.29c-5.28,0 -10.55,0.22 -15.51,0.76c-23.26,2.56 -35.09,16.55 -35.09,33.26c0,13.74 9.99,26.7 28.7,30.29l22.54,4.32c8.23,1.6 12.47,3.43 12.47,7.91c0,3.44 -3.2,7.04 -13.83,7.04c-9.59,0 -22.54,-1.44 -30.78,-1.44c-7.91,0 -16.3,3.6 -16.3,19.18c0,1.92 0.32,4.32 0.72,6.24c11.83,1.36 36.69,3.52 53.88,1.68c23.74,-2.56 35.41,-15.59 35.41,-33.5c0,-15.42 -9.52,-27.98 -31.58,-32.05l-21.5,-4c-6.88,-1.2 -11.19,-2.8 -11.19,-6.71c0,-3.68 4.55,-6.72 15.51,-6.72c10.79,0 20.22,1.12 26.3,1.12c7.91,0 16.14,-3.36 16.14,-18.94c0,-2.08 -0.24,-4 -0.63,-6c-8.44,-1.03 -21.85,-2.44 -35.25,-2.44l-0.01,0zm118.16,12.83l-35.97,39.33l28.93,45.56c5.36,8.32 12.39,12.55 23.83,12.55c7.51,0 13.74,-1.75 16.62,-3.11l-34.85,-52.52l24.7,-26.22l40.53,63.63l-24.71,52.04c2.48,1.27 7.52,2.79 13.83,2.95c10.88,0.24 16.79,-3.91 21.18,-13.67l58.28,-129.97c-2.39,-1.28 -7.75,-2.72 -12.07,-2.8c-7.51,-0.16 -17.58,1.36 -23.98,16.71l-18.86,44.52l-37.01,-60.27c-2.4,-0.72 -8.24,-1.76 -12.48,-1.76c-13.11,0 -20.38,4.8 -27.97,13.03m-66.55,-30.37l0,127.1c2.08,0.31 4.24,0.47 6.72,0.47c18.7,0 22.46,-5.51 22.46,-15.11l0,-131.49c-2.24,-0.48 -4.64,-0.72 -7.04,-0.72c-18.86,0 -22.14,10.08 -22.14,19.75" fill="#ffffff" id="svg_2" stroke="#ffffff"/>
   <g id="svg_3" opacity="0.4">
    <defs stroke="#ffffff">
     <path d="m255.36,77.54c-0.08,0.19 -0.07,0.16 0.03,-0.07c-0.01,0.02 -0.02,0.04 -0.03,0.07m9.72,-22.94c0,0 -8.75,20.65 -9.69,22.87c1.11,-2.51 4.39,-4.57 6.8,-4.91c0,0 19.74,-2.78 21.11,-2.97c2.95,-0.41 6.13,-2.78 7.13,-5.03l10.7,-23.87c-2.4,-1.28 -7.75,-2.72 -12.07,-2.8c-0.31,0 -0.62,-0.01 -0.94,-0.01c-7.39,0 -16.91,2 -23.04,16.72m-229.99,-16.55c-23.26,2.56 -35.09,16.55 -35.09,33.26c0,8.97 4.26,17.61 12.43,23.52c0.07,0.05 0.13,0.1 0.2,0.14c0.62,0.46 1.77,1.22 2.55,1.66c9.01,5.08 28.69,6.6 37.85,5.32c5.69,-0.8 17.87,-2.51 24.07,-3.39c6.03,-0.85 12.94,0.39 14.63,5.91c-3.05,-11.39 -12.68,-20.2 -30.5,-23.49l-21.5,-4c-6.88,-1.2 -11.19,-2.8 -11.19,-6.72c0,-3.67 4.55,-6.71 15.51,-6.71c10.79,0 20.22,1.12 26.29,1.12c7.92,0 16.15,-3.36 16.15,-18.94c0,-2.08 -0.24,-4.01 -0.64,-6c-8.44,-1.03 -21.86,-2.44 -35.26,-2.44c-5.27,0 -10.54,0.22 -15.5,0.76m133.67,12.06l-35.97,39.34c0,0 2.61,0.92 5.9,0.46c2.13,-0.3 25.17,-3.54 28.9,-4.06c3.49,-0.49 7.56,-2.24 10.35,-5.2l14.08,-14.94l7.31,11.48c1.67,2.62 5.6,3.41 9.22,2.9c0.88,-0.13 15.67,-2.2 18,-2.53c2.53,-0.35 6.92,0.81 8.25,2.96l-25.59,-41.67c-2.4,-0.72 -8.24,-1.76 -12.48,-1.76c-13.11,0 -20.38,4.8 -27.97,13.02m-66.55,-30.37l0,84.82c0,-1.51 0.07,-1.77 0.12,-3.13c0.13,-3.49 2.75,-6.8 7.2,-7.43c3.17,-0.44 12.31,-1.73 15.04,-2.11c2.3,-0.32 6.22,-1.97 6.82,-6.29l0,-84.88c-2.24,-0.48 -4.64,-0.72 -7.04,-0.72c-18.86,0 -22.14,10.07 -22.14,19.74" fill="#ffffff" id="SVGID_1_" opacity="0.4" stroke="#ffffff"/>
    </defs>
    <clipPath id="SVGID_2_" stroke="#ffffff">
     <use fill="#ffffff" id="svg_4" overflow="visible" stroke="#ffffff" xlink:href="#SVGID_1_"/>
    </clipPath>
    <linearGradient id="SVGID_3_" stroke="#ffffff" x1="0.51" x2="0.48" y1="0.62" y2="0.32">
     <stop offset="0" stop-color="#FFFFFF" stroke="#ffffff"/>
     <stop offset="1" stop-color="#FFFFFF" stop-opacity="0" stroke="#ffffff"/>
    </linearGradient>
    <polygon clip-path="url(#SVGID_2_)" fill="#ffffff" id="svg_5" points="-8.017,191.528 -40.256,-37.869 309.15,-86.975     341.39,142.422   " stroke="#ffffff"/>
   </g>
  </g>
 </g>
</svg>